<svg width="308" height="45" fill="none" xmlns="http://www.w3.org/2000/svg"><path d="M0 0h44.115v44.115H0V0ZM49.693 0h44.115v44.115H49.693V0ZM99.386 0h44.115v44.115H99.386V0ZM169.948 6.478l16.067 20.198V12.674c0-1.953-.28-3.274-.841-3.962-.768-.93-2.057-1.377-3.866-1.345v-.889h10.759v.889c-1.377.176-2.305.408-2.786.696-.464.272-.832.729-1.104 1.37-.257.623-.385 1.704-.385 3.241V39.79h-.816l-22.023-27.115v20.703c0 1.873.424 3.138 1.272 3.794.865.657 1.85.985 2.954.985h.769v.889h-11.552v-.89c1.793-.015 3.042-.383 3.747-1.104.704-.72 1.056-1.945 1.056-3.674V10.393l-.696-.865c-.689-.864-1.297-1.433-1.825-1.705-.529-.272-1.289-.424-2.282-.456v-.889h11.552ZM209.105 8.351v13.257h.648c2.065 0 3.563-.648 4.491-1.945.929-1.297 1.521-3.21 1.777-5.74h.913v17.052h-.913c-.192-1.857-.6-3.378-1.224-4.563-.609-1.185-1.321-1.978-2.138-2.378-.816-.416-2.001-.624-3.554-.624v9.174c0 1.793.072 2.89.216 3.29.16.4.448.729.864.985.417.256 1.089.384 2.018.384h1.945c3.042 0 5.476-.704 7.301-2.113 1.841-1.41 3.162-3.555 3.963-6.437h.889l-1.466 10.351h-28.147v-.888h1.081c.944 0 1.705-.168 2.281-.504.417-.225.737-.609.961-1.153.176-.385.264-1.393.264-3.026V12.05c0-1.473-.04-2.378-.12-2.714-.16-.56-.456-.993-.888-1.297-.609-.448-1.441-.672-2.498-.672h-1.081v-.889h27.259v9.63h-.913c-.464-2.353-1.121-4.042-1.969-5.067-.833-1.024-2.018-1.777-3.555-2.257-.896-.289-2.577-.433-5.043-.433h-3.362ZM279.723 6.478v.889c-.608.048-1.121.216-1.537.504-.416.288-.785.729-1.105 1.32-.096.193-.6 1.434-1.513 3.723L265.361 39.79h-.937l-8.069-20.99-8.886 20.99h-.889l-10.711-26.586c-1.089-2.674-1.85-4.291-2.282-4.852-.432-.56-1.161-.888-2.185-.984v-.889h14.121v.889c-1.136.032-1.897.208-2.281.528a1.434 1.434 0 0 0-.553 1.153c0 .608.393 1.897 1.177 3.867l6.389 15.802 5.115-12.344-1.345-3.459c-.736-1.889-1.305-3.146-1.705-3.77-.4-.64-.865-1.097-1.393-1.37-.512-.271-1.273-.407-2.281-.407v-.889h15.778v.889c-1.104.016-1.897.104-2.377.264a1.536 1.536 0 0 0-.793.576 1.442 1.442 0 0 0-.288.889c0 .368.36 1.497 1.081 3.386l5.932 15.419 5.308-13.954c.56-1.44.904-2.425 1.032-2.954a6.254 6.254 0 0 0 .192-1.465c0-.656-.224-1.169-.672-1.537-.448-.384-1.305-.592-2.57-.624v-.889h8.454ZM305.719 5.734l.264 10.855h-.985c-.464-2.722-1.609-4.907-3.434-6.556-1.81-1.666-3.771-2.498-5.884-2.498-1.634 0-2.93.44-3.891 1.32-.945.865-1.417 1.866-1.417 3.003 0 .72.168 1.36.504 1.921.465.753 1.209 1.497 2.234 2.234.752.528 2.49 1.465 5.211 2.81 3.811 1.873 6.381 3.642 7.71 5.307 1.313 1.665 1.969 3.57 1.969 5.716 0 2.722-1.065 5.068-3.194 7.037-2.114 1.953-4.803 2.93-8.07 2.93-1.024 0-1.993-.104-2.906-.312-.912-.208-2.057-.6-3.434-1.177-.769-.32-1.401-.48-1.897-.48-.417 0-.857.16-1.321.48-.465.32-.841.809-1.129 1.465h-.889V27.492h.889c.704 3.459 2.057 6.1 4.059 7.926 2.017 1.81 4.187 2.714 6.508 2.714 1.794 0 3.218-.488 4.275-1.465 1.073-.977 1.609-2.114 1.609-3.41 0-.769-.208-1.513-.624-2.234-.4-.72-1.017-1.401-1.849-2.041-.833-.657-2.306-1.505-4.419-2.546-2.962-1.457-5.092-2.698-6.389-3.723-1.297-1.024-2.297-2.17-3.002-3.434-.688-1.265-1.033-2.658-1.033-4.179 0-2.594.953-4.803 2.858-6.629 1.906-1.825 4.307-2.737 7.205-2.737 1.057 0 2.082.128 3.074.384.753.192 1.666.552 2.738 1.08 1.089.513 1.85.77 2.282.77.416 0 .744-.129.985-.385.24-.256.464-.873.672-1.85h.721Z" fill="#000"/><path d="M19.993 7.844v13.258h.648c2.066 0 3.563-.649 4.492-1.946.928-1.297 1.52-3.21 1.777-5.74h.912v17.052h-.912c-.192-1.857-.6-3.378-1.225-4.563-.608-1.185-1.321-1.978-2.138-2.378-.816-.416-2-.624-3.554-.624v9.174c0 1.793.072 2.89.216 3.29.16.4.448.729.865.985.416.256 1.088.384 2.017.384h1.945c3.043 0 5.476-.704 7.301-2.113 1.842-1.41 3.163-3.555 3.963-6.437h.889l-1.465 10.352H7.576v-.89h1.081c.945 0 1.705-.167 2.282-.503.416-.225.736-.609.96-1.153.177-.384.265-1.393.265-3.026V11.543c0-1.473-.04-2.378-.12-2.714-.16-.56-.457-.993-.89-1.297-.607-.448-1.44-.672-2.497-.672h-1.08V5.97h27.258v9.63h-.912c-.465-2.353-1.121-4.042-1.97-5.067-.832-1.024-2.017-1.777-3.554-2.257-.897-.289-2.578-.433-5.044-.433h-3.362ZM80.9 5.07l.264 10.856h-.984c-.465-2.722-1.61-4.907-3.435-6.556-1.81-1.665-3.77-2.498-5.884-2.498-1.633 0-2.93.44-3.89 1.32-.945.865-1.418 1.866-1.418 3.003 0 .72.169 1.36.505 1.921.464.753 1.209 1.497 2.233 2.234.753.528 2.49 1.465 5.212 2.81 3.81 1.873 6.38 3.642 7.71 5.307 1.312 1.666 1.969 3.57 1.969 5.716 0 2.722-1.065 5.068-3.195 7.037-2.113 1.953-4.803 2.93-8.07 2.93-1.024 0-1.993-.104-2.905-.312-.913-.208-2.058-.6-3.435-1.177-.768-.32-1.4-.48-1.897-.48-.416 0-.856.16-1.32.48-.465.32-.841.809-1.13 1.465h-.888V26.83h.888c.705 3.458 2.058 6.1 4.06 7.925 2.017 1.81 4.186 2.714 6.508 2.714 1.793 0 3.218-.488 4.275-1.465 1.072-.977 1.609-2.113 1.609-3.41 0-.769-.208-1.513-.625-2.234-.4-.72-1.016-1.4-1.849-2.041-.832-.657-2.305-1.505-4.419-2.546-2.962-1.457-5.091-2.698-6.388-3.723-1.297-1.024-2.298-2.17-3.002-3.434-.689-1.265-1.033-2.658-1.033-4.179 0-2.594.953-4.803 2.858-6.628 1.905-1.826 4.307-2.738 7.205-2.738 1.056 0 2.081.128 3.074.384.752.192 1.665.552 2.738 1.08 1.088.513 1.85.77 2.281.77.417 0 .745-.129.985-.385s.464-.873.672-1.85h.721ZM135.892 5.095v11.48h-.889c-1.073-3.138-2.682-5.524-4.827-7.157-2.146-1.633-4.491-2.45-7.037-2.45-2.434 0-4.459.688-6.076 2.065-1.617 1.361-2.762 3.267-3.435 5.716a28.376 28.376 0 0 0-1.008 7.542c0 3.122.368 5.86 1.104 8.213.737 2.354 1.922 4.083 3.555 5.188 1.649 1.105 3.602 1.657 5.86 1.657.785 0 1.585-.08 2.402-.24a18.14 18.14 0 0 0 2.545-.745v-6.772c0-1.281-.088-2.106-.264-2.474-.176-.384-.544-.729-1.105-1.033-.544-.304-1.208-.456-1.993-.456h-.841v-.889h15.827v.889c-1.2.08-2.041.248-2.521.504-.465.24-.825.649-1.081 1.225-.144.304-.216 1.049-.216 2.234v6.772a31.507 31.507 0 0 1-6.509 2.09c-2.241.48-4.571.72-6.989.72-3.09 0-5.659-.416-7.709-1.249-2.033-.848-3.835-1.953-5.404-3.314-1.553-1.377-2.77-2.922-3.65-4.635-1.121-2.21-1.681-4.683-1.681-7.421 0-4.9 1.721-9.038 5.163-12.417 3.443-3.378 7.774-5.067 12.993-5.067 1.617 0 3.074.128 4.371.384.705.128 1.842.496 3.411 1.105 1.585.592 2.521.888 2.81.888.448 0 .864-.16 1.248-.48.385-.336.737-.96 1.057-1.873h.889Z" fill="#fff"/></svg>