<svg xmlns="http://www.w3.org/2000/svg" width="574" height="71" fill="none"><path d="M342.708 38.978c0 9.18-5.708 10.858-10.758 10.858-5.05 0-10.721-1.695-10.721-10.858v-21.68h-3.573v22.089c0 5.861 2.203 14.022 14.294 14.022 12.092 0 14.327-8.124 14.327-14.022V17.298h-3.569v21.68Zm-242.554 13.54h4.757V37.277h19.042v-4.464h-19.034V21.776h20.227v-4.477h-24.984l-.008 35.22Zm47.348-36.11a17.915 17.915 0 0 0-17.119 11.359 17.93 17.93 0 0 0-1.232 7.137 18.353 18.353 0 0 0 36.706 0 17.905 17.905 0 0 0-11.226-17.21 17.92 17.92 0 0 0-7.129-1.286Zm0 32.514c-8.058 0-13.273-6.313-13.273-14.018 0-7.705 5.222-14.012 13.273-14.012 8.052 0 13.273 6.307 13.273 14.018 0 7.712-5.226 14.019-13.273 14.019m54.03-21.788c0-4.425-2.301-9.847-11.289-9.847h-18.104v35.225h4.765v-15.53h11.06l8.94 15.53h5.975l-10.013-16.07a9.439 9.439 0 0 0 8.672-9.307m-24.619 5.67v-11.33h11.989c3.78 0 7.57.89 7.57 5.66 0 4.77-3.805 5.67-7.59 5.67h-11.969Zm45.477-15.514H210.1v35.22h11.474c12.595 0 19.306-8.608 19.306-17.614 0-6.523-3.639-17.606-18.505-17.606m-1.499 30.73h-5.994V21.774h7.161c11.436 0 13.772 8.657 13.772 13.13 0 8.708-6.87 13.122-14.936 13.122m26.578 4.496h3.588V35.859h19.284v-3.286h-19.284V20.584h20.511v-3.286h-24.104l.005 35.225Zm45.73-36.111a17.93 17.93 0 0 0-13.165 5.292 17.933 17.933 0 0 0-5.193 13.204 18.36 18.36 0 0 0 5.376 12.978 18.345 18.345 0 0 0 12.977 5.376 18.355 18.355 0 0 0 18.354-18.354 17.93 17.93 0 0 0-5.188-13.203 17.917 17.917 0 0 0-13.161-5.293Zm0 33.715c-9.056 0-14.481-7.116-14.481-15.219s5.425-15.212 14.481-15.212c9.055 0 14.478 7.116 14.478 15.212 0 8.097-5.41 15.22-14.478 15.22Zm87.615-2.973h-.099l-20.991-29.852h-4.465V52.52h3.586V22.372h.085l20.98 30.147h4.479V17.298h-3.578l.003 29.856Zm24.328-29.852h-11.691V52.52h11.686c8.795 0 18.488-5.877 18.488-17.615s-9.693-17.606-18.488-17.606m-1.153 31.926h-6.958V20.582h6.958c10.746 0 15.764 7.08 15.764 14.322 0 7.242-5.018 14.32-15.764 14.32Zm36.822-31.926-15.314 35.22h4.181l3.854-9.243h18.002l3.896 9.244h4.175l-15.322-35.221h-3.472Zm-5.922 22.693 7.656-18.514 7.621 18.514h-15.277Zm22.05-19.413h11.788v31.94h3.583V20.583h11.775v-3.284h-27.156l.01 3.28Zm32.635 31.936h3.564V17.298h-3.564v35.216Zm29.543-36.11A17.913 17.913 0 0 0 500.743 34.9a18.344 18.344 0 0 0 11.281 17.133 18.354 18.354 0 0 0 20.115-4.03 18.352 18.352 0 0 0 5.304-13.103 17.907 17.907 0 0 0-5.184-13.203 17.905 17.905 0 0 0-13.159-5.294Zm0 33.715c-9.058 0-14.48-7.116-14.48-15.22 0-8.102 5.422-15.212 14.48-15.212s14.459 7.116 14.459 15.213c0 8.096-5.416 15.219-14.459 15.219Zm51.069-32.825V47.15h-.098l-20.98-29.852h-4.479v35.22h3.584V22.373h.092l20.991 30.147h4.459V17.298l-3.569-.004Z" fill="#502D1E"/><path d="M52.675 8.968A8.101 8.101 0 0 1 44.58.865V.7c.501.135.996.284 1.484.44A6.625 6.625 0 0 0 56.27 6.43c.411.303.818.624 1.218.949a8.084 8.084 0 0 1-4.814 1.589Z" fill="#617995"/><path d="M37.892 8.436a9.961 9.961 0 0 0-5.78 0 8.107 8.107 0 0 1-5.209-7.57c0-.181 0-.37.022-.545.496-.12.997-.23 1.511-.321-.04.283-.061.57-.062.856a6.626 6.626 0 0 0 13.25 0c0-.287-.02-.573-.058-.856.511.092 1.014.2 1.515.32a8.116 8.116 0 0 1-5.19 8.116Z" fill="#DF852E"/><path d="M17.34 8.596a7.707 7.707 0 0 1-4.519-1.458c.204-.16.407-.319.613-.473a6.992 6.992 0 0 0 10.894-5.64c.24-.078.49-.155.735-.215v.066a7.722 7.722 0 0 1-7.723 7.72Zm52.333 18.159a8.835 8.835 0 0 1-6.65-13.75 37.053 37.053 0 0 1 1.901 2.652 5.814 5.814 0 0 0-.466 2.288 5.888 5.888 0 0 0 4.318 5.675 34.71 34.71 0 0 1 .897 3.135Z" fill="#00ADEE"/><path d="M52.675 11.316a6.636 6.636 0 1 0 0 13.271 6.636 6.636 0 0 0 0-13.27Zm0 14.723a8.101 8.101 0 0 1-7.891-6.286 9.806 9.806 0 0 0 .008-3.618 8.096 8.096 0 1 1 7.883 9.895" fill="#C0B300"/><path d="M35.013 13.158a4.787 4.787 0 1 0 4.78 4.787 4.795 4.795 0 0 0-4.78-4.787Zm-3.33 14.157a9.932 9.932 0 0 1-6.456-7.557 7.92 7.92 0 0 0 .203-1.804 8.08 8.08 0 0 0-.2-1.803 9.957 9.957 0 0 1 6.886-7.707c.922.358 1.902.54 2.89.537a8.028 8.028 0 0 0 2.886-.545 9.944 9.944 0 0 1 6.883 7.706 8.165 8.165 0 0 0 0 3.623 9.926 9.926 0 0 1-6.442 7.55 8.493 8.493 0 0 0-6.636 0" fill="#8B80A1"/><path d="M35.013 8.968a8.013 8.013 0 0 1-2.89-.533 9.961 9.961 0 0 1 5.78 0 8.012 8.012 0 0 1-2.888.533" fill="#865336"/><path d="M44.783 19.755a8.15 8.15 0 0 1 0-3.618c.11.596.166 1.202.165 1.809a9.81 9.81 0 0 1-.165 1.809Z" fill="#6D5F27"/><path d="M17.34 11.318a6.636 6.636 0 1 0 6.622 6.636 6.65 6.65 0 0 0-6.622-6.636Zm0 14.722a8.096 8.096 0 1 1 7.887-9.897 10.08 10.08 0 0 0 0 3.608 8.093 8.093 0 0 1-7.887 6.28" fill="#67A7BC"/><path d="M25.236 19.75a9.937 9.937 0 0 1 0-3.605 8.171 8.171 0 0 1 0 3.605Z" fill="#4C6A87"/><path d="M.643 25.613c.066-.26.143-.522.214-.782a7.007 7.007 0 0 0 5.808-6.886 7.044 7.044 0 0 0-.857-3.347c.157-.214.313-.44.473-.655a7.683 7.683 0 0 1 1.116 4.002 7.729 7.729 0 0 1-6.754 7.668Z" fill="#979F82"/><path d="M69.723 43.095a8.099 8.099 0 0 1 0-16.148c.107.48.214.966.304 1.454a6.636 6.636 0 0 0 0 13.237c-.093.481-.191.971-.304 1.457Z" fill="#67A7BC"/><path d="M52.675 28.024a6.996 6.996 0 1 0 6.994 6.999 7.014 7.014 0 0 0-6.994-6.997m0 14.725a7.73 7.73 0 1 1 .009-15.462 7.73 7.73 0 0 1-.01 15.462Z" fill="#617995"/><path d="M35.013 28.687a6.33 6.33 0 1 0 6.33 6.334 6.346 6.346 0 0 0-6.33-6.336m0 14.726a8.396 8.396 0 0 1-3.329-16.097 9.933 9.933 0 0 0 6.637 0 8.396 8.396 0 0 1-3.319 16.108" fill="#00ADEE"/><path d="M35.013 27.878a9.784 9.784 0 0 1-3.329-.563 8.492 8.492 0 0 1 6.637 0 9.727 9.727 0 0 1-3.319.571" fill="#0071A1"/><path d="M17.34 29.128a5.892 5.892 0 1 0 5.895 5.893 5.898 5.898 0 0 0-5.894-5.893Zm3.895 13.814a9.982 9.982 0 0 0-7.773 0 8.835 8.835 0 1 1 7.773 0Z" fill="#A69994"/><path d="M.304 43.095A31.723 31.723 0 0 1 0 41.631a6.624 6.624 0 0 0 6.305-6.609A6.636 6.636 0 0 0 0 28.401c.092-.488.193-.974.306-1.454a8.1 8.1 0 0 1 7.472 8.075 8.11 8.11 0 0 1-7.474 8.071" fill="#DF852E"/><path d="M63.308 56.67a8.299 8.299 0 0 1-1.355-4.566 8.391 8.391 0 0 1 7.61-8.35 33.73 33.73 0 0 1-.622 2.18 6.337 6.337 0 0 0-4.308 8.903 34.93 34.93 0 0 1-1.325 1.844" fill="#00ADEE"/><path d="M52.675 46.21a5.886 5.886 0 1 0 .012 11.772 5.886 5.886 0 0 0-.012-11.772Zm-3.886 13.819a8.83 8.83 0 1 1 7.782 0 9.953 9.953 0 0 0-7.782 0Z" fill="#DF852E"/><path d="M35.014 45.103a6.994 6.994 0 1 0 6.991 7 7.002 7.002 0 0 0-6.992-7Zm0 14.72a7.722 7.722 0 0 1-7.729-7.583v-.278a7.73 7.73 0 1 1 7.729 7.861Z" fill="#72A542"/><path d="M17.34 47.317a4.783 4.783 0 1 0 4.785 4.787 4.794 4.794 0 0 0-4.785-4.787Zm3.319 14.144a8.482 8.482 0 0 0-6.637 0 9.94 9.94 0 0 1-6.452-7.55c.139-.593.21-1.199.214-1.807a8.213 8.213 0 0 0-.214-1.818 9.949 9.949 0 0 1 5.891-7.343 8.855 8.855 0 0 0 7.776 0 9.952 9.952 0 0 1 6.048 9.011v.278a9.927 9.927 0 0 1-6.62 9.23" fill="#A2A17A"/><path d="M17.34 43.851a8.799 8.799 0 0 1-3.89-.9 9.997 9.997 0 0 1 7.78 0 8.806 8.806 0 0 1-3.89.9Z" fill="#6C654A"/><path d="M6.525 56.43c-.327-.432-.64-.873-.942-1.323a6.61 6.61 0 0 0 .722-2.997 6.637 6.637 0 0 0-5.32-6.506 34.764 34.764 0 0 1-.445-1.552 8.098 8.098 0 0 1 7.034 6.234 10.178 10.178 0 0 0 0 3.624 8.18 8.18 0 0 1-1.049 2.52Z" fill="#00ADEE"/><path d="M7.574 53.91a10.18 10.18 0 0 1 0-3.624c.14.596.211 1.205.214 1.817a8.115 8.115 0 0 1-.214 1.807Z" fill="#00857D"/><path d="M43.092 69.73c.013-.184.02-.364.02-.552a8.286 8.286 0 0 0-.215-1.8 9.932 9.932 0 0 1 5.881-7.346 8.877 8.877 0 0 0 7.782 0 9.89 9.89 0 0 1 2.342 1.409 36.468 36.468 0 0 1-4.324 3.357 4.784 4.784 0 0 0-6.594 3.408 34.817 34.817 0 0 1-4.902 1.526" fill="#00ADEE"/><path d="M52.675 60.926a8.816 8.816 0 0 1-3.885-.9 9.954 9.954 0 0 1 7.781 0 8.862 8.862 0 0 1-3.896.9Z" fill="#006547"/><path d="M41.575 70.046c.039-.288.06-.578.062-.869a6.637 6.637 0 0 0-13.252 0c.001.29.021.581.06.87a30.26 30.26 0 0 1-1.499-.318 5.886 5.886 0 0 1-.021-.552 8.099 8.099 0 0 1 15.992-1.805c-.11.596-.164 1.2-.163 1.805 0 .214 0 .428.017.625-.394.09-.788.171-1.188.244" fill="#C0B300"/><path d="M42.763 69.801c-.01-.208-.015-.416-.015-.625a9.805 9.805 0 0 1 .16-1.804 8.1 8.1 0 0 1 .215 1.804c0 .189 0 .368-.02.553a7.16 7.16 0 0 1-.33.072" fill="#007F3E"/><path d="M25.735 69.43a34.559 34.559 0 0 1-2.072-.625 6.329 6.329 0 0 0-9.654-5.008 40.814 40.814 0 0 1-1.712-1.327 8.626 8.626 0 0 1 1.727-1.008 9.993 9.993 0 0 0 6.637 0 8.418 8.418 0 0 1 5.074 7.707v.252" fill="#617995"/><path d="M17.34 62.028a9.755 9.755 0 0 1-3.32-.567 8.455 8.455 0 0 1 6.637 0 9.848 9.848 0 0 1-3.318.563" fill="#4F635D"/></svg>