<svg xmlns="http://www.w3.org/2000/svg" width="117" height="32" fill="none"><path d="M12.618 20.364H7.382V25.6h5.236v-5.236Z" fill="#7CE8FE"/><path d="M15.834 13.382H6.982v5.236h10.472v-5.236h-1.62Z" fill="#3EC7E3"/><path d="M22.69 6.4H6.982v5.236H22.69V6.4Z" fill="#00A2C7"/><path d="M5.236 13.382H0v5.236h5.236v-5.236Z" fill="#3EC7E3"/><path d="M27.924 25.6h4.059v-7.931h7.809v-3.347h-7.81V9.747h8.654V6.4H27.924v19.2Zm14.71-15.853h5.879V25.6h4.012V9.747h5.878V6.4H42.635v3.347ZM64.807 6.4h-4.603L66.1 16l-6.01 9.6h4.65l3.938-6.553h.15l3.937 6.553h4.669l-5.99-9.6 5.858-9.6h-4.584l-3.89 6.544h-.15L64.806 6.4ZM86 25.277h11.135V23.73h-9.411v-7.125h8.646v-1.55h-8.646V7.95h9.226V6.4H86v18.877ZM114.469 6.4v12.592c0 3.056-2.175 5.288-5.522 5.288-3.347 0-5.523-2.232-5.523-5.288V6.4h-1.753v12.714c-.009 3.919 2.954 6.816 7.276 6.816 4.331 0 7.275-2.897 7.275-6.816V6.4h-1.753Z" fill="#000"/></svg>