<svg xmlns="http://www.w3.org/2000/svg" width="193" height="50" fill="none"><path d="M25.385 5.791c10.576 0 19.137 8.562 19.137 19.137 0 10.576-8.561 19.137-19.137 19.137-10.575 0-19.137-8.561-19.137-19.137C6.164 14.436 14.81 5.791 25.385 5.791Zm0-5.791C11.536 0 .373 11.163.373 24.928s11.163 24.928 25.012 24.928c13.765 0 24.928-11.163 24.928-24.928S39.15 0 25.385 0Z" fill="#00AEEF"/><path d="M25.889 20.648v3.776h3.693v1.008h-3.693v3.86H24.88v-3.86h-3.69v-1.008h3.692v-3.776h1.008Z" fill="#8D7535"/><path d="M6.164 5.791h38.274V0H6.164v5.791Zm38.358 0v38.274h5.791V5.791h-5.791ZM.373 44.15h5.791V5.79H.373v38.36Zm5.791 5.791h38.274V44.15H6.164v5.791Z" fill="#B2292E"/><path d="m65.505 19.724 1.427-.335.168-1.93V9.232h-1.007l-1.679.168-.42 1.93H62.82l.168-3.19h10.828l.168 3.19h-1.176l-.251-1.93-1.68-.168h-.922v8.225l.168 1.93 1.426.336v.84h-6.043v-.84Zm9.233 0 1.175-.336.168-1.511V9.903l-.168-1.51-1.427-.336v-.84l4.448-.42-.168 3.022v3.19c.672-1.007 1.763-1.51 2.938-1.51 1.763 0 2.77 1.09 2.77 3.105v3.105l.168 1.511 1.175.336v.839H80.78v-.84l.84-.335.167-1.51v-2.52c0-1.091-.504-1.762-1.51-1.762-.504 0-1.092.167-1.68.755v3.525l.168 1.511.756.336v.839h-5.036v-.671h.252Zm12.338-3.357c0-2.77 1.763-4.7 4.28-4.7 2.015 0 3.778 1.51 3.61 4.196h-5.204v.084c0 1.679.923 3.106 2.854 3.106.587 0 1.259-.168 1.846-.588l.588.672c-1.343 1.259-2.35 1.762-3.945 1.762-2.434 0-4.029-1.678-4.029-4.532Zm4.197-1.511 1.007-.168c0-1.427-.504-2.014-1.175-2.014-.755 0-1.259.671-1.343 2.182h1.51Zm8.729 4.868 1.427-.335.168-1.93v-6.296l-.168-1.93-1.427-.336v-.755h6.043v.755l-1.427.336-.168 1.93v6.295l.168 1.679 1.259.336h.84l1.51-.336.42-1.847h1.091l-.168 3.19h-9.484v-.756h-.084Zm10.492-1.175c0-.923.419-1.595 1.259-2.182.839-.588 1.93-.84 3.441-.84v-.42c0-1.09-.672-1.762-1.763-1.762-.671 0-1.343.252-1.846.755l-.672-.671c1.008-1.175 2.434-1.93 3.861-1.93 1.847 0 2.938 1.007 2.938 2.937v3.525l.168 1.511 1.091.336v.84l-3.945.419.504-2.098c-.672 1.342-1.679 2.098-2.854 2.098-1.175-.168-2.182-1.007-2.182-2.518Zm4.7-.42v-1.51c-.755 0-1.259.083-1.679.335-.335.168-.503.504-.503.924 0 .587.335 1.007.923 1.007.42-.084.839-.336 1.259-.756Zm5.791-.335v-3.106l-.168-1.51-1.259-.337v-.839l4.281-.42-.168 3.022v2.518c0 1.091.42 1.763 1.511 1.763.503 0 1.259-.252 1.678-.756v-3.525l-.168-1.51-1.343-.336v-.84l4.281-.42-.168 3.022v3.19l.168 1.51 1.343.336v.84l-4.113.42.168-1.764c-.755 1.176-1.595 1.847-3.189 1.847-1.847 0-2.854-1.007-2.854-3.105Zm10.744-1.259c0-2.77 1.846-4.869 4.616-4.869.503 0 1.091.085 1.595.168v-1.93l-.168-1.51-1.427-.253v-.839l4.448-.42-.168 3.022v7.974l.168 1.51 1.008.336v.84l-3.777.42.419-1.931c-.839 1.175-1.846 1.93-3.021 1.93-2.099-.084-3.693-1.93-3.693-4.448Zm6.211 1.51v-4.952c-.504-.251-.924-.335-1.343-.335-1.259 0-2.099 1.175-2.099 3.357 0 1.679.672 2.854 1.931 2.854.503 0 1.091-.252 1.511-.924Zm4.616.504c0-.923.42-1.595 1.259-2.182.839-.588 1.931-.84 3.441-.84v-.42c0-1.09-.671-1.762-1.762-1.762-.672 0-1.343.252-1.847.755l-.671-.671c1.007-1.175 2.434-1.93 3.861-1.93 1.846 0 2.937 1.007 2.937 2.937v3.525l.168 1.511 1.091.336v.84l-3.944.419.503-2.098c-.671 1.342-1.679 2.098-2.854 2.098-1.175-.168-2.182-1.007-2.182-2.518Zm4.7-.42v-1.51c-.755 0-1.343.083-1.678.335-.336.168-.504.504-.504.924 0 .587.336 1.007.923 1.007.42-.084.84-.336 1.259-.756Zm5.624.504v-5.456h-1.343V12.17l1.343-.336V9.652l2.601-.504v2.854h2.435v1.091h-2.435v4.533c0 .755.252 1.427 1.008 1.427.251 0 .839-.168 1.091-.336l.503.84c-1.343 1.09-2.182 1.342-3.105 1.342-1.175 0-2.098-.84-2.098-2.266Zm6.127-2.35c0-2.434 1.511-4.617 4.616-4.617 2.602 0 4.449 1.68 4.449 4.449 0 3.022-1.931 4.868-4.617 4.868-2.686-.084-4.448-1.846-4.448-4.7Zm5.959-.084c0-2.602-.42-3.441-1.595-3.441-1.091 0-1.51.839-1.51 3.525 0 2.602.419 3.441 1.51 3.441 1.259 0 1.595-.755 1.595-3.525Zm8.477 3.861-.168-3.106h1.259l.42 2.015a3.581 3.581 0 0 0 2.014.587c1.595 0 2.518-.755 2.518-1.93 0-1.091-1.426-1.763-2.769-2.266-1.763-.672-3.358-1.427-3.358-3.777 0-2.183 1.763-3.861 4.617-3.861.923 0 2.434.335 3.357.755l.168 3.022h-1.259l-.504-2.015c-.419-.335-1.259-.587-1.846-.587-1.595 0-2.518.923-2.518 1.678 0 1.343 1.343 1.68 2.602 2.183 1.93.839 3.693 1.846 3.693 4.112 0 2.434-2.015 3.945-4.868 3.945-1.092-.084-2.015-.168-3.358-.755Zm9.569-.336 1.175-.336.167-1.51v-3.19l-.167-1.51-1.427-.337v-.839l4.448-.42-.168 3.022v3.19l.168 1.51 1.175.336v.84h-5.455v-.756h.084Zm1.007-11.415c0-.923.755-1.679 1.678-1.679.924 0 1.679.672 1.679 1.679 0 .84-.671 1.679-1.679 1.679-.923-.084-1.678-.756-1.678-1.679Zm5.456 3.861c1.175-.336 1.93-.84 1.678-1.847-.923-.084-1.511-.755-1.511-1.594 0-.84.588-1.511 1.511-1.511 1.007 0 1.847.84 1.847 2.35 0 2.098-1.259 3.021-3.106 3.609l-.419-1.007ZM64.078 34.496c0-3.357 1.93-6.798 6.883-6.798 1.259 0 2.266.084 4.029.42l.167 3.021h-1.175l-.503-2.098a7.018 7.018 0 0 0-2.434-.42c-2.518 0-3.945 2.266-3.945 5.204 0 3.021 1.175 5.707 4.113 5.707.67 0 1.594-.167 2.35-.503l.503-2.015h1.175l-.168 3.274c-1.51.252-2.35.42-4.448.42-5.036 0-6.547-3.022-6.547-6.212Zm12.422 5.12 1.175-.336.168-1.51v-7.974l-.168-1.51-1.426-.337v-.839l4.448-.42-.168 3.022v3.19c.672-1.008 1.763-1.511 2.938-1.511 1.762 0 2.77 1.09 2.77 3.105v3.274l.168 1.51 1.174.336v.84h-5.035v-.84l.839-.336.168-1.51v-2.518c0-1.092-.504-1.763-1.511-1.763-.504 0-1.091.168-1.679.755v3.526l.168 1.51.755.336v.84H76.25v-.84h.251Zm12.339-1.175c0-.923.42-1.595 1.259-2.182.84-.588 1.93-.84 3.441-.84V35c0-1.09-.671-1.762-1.763-1.762-.67 0-1.342.252-1.846.756l-.672-.672c1.008-1.175 2.435-1.93 3.862-1.93 1.846 0 2.937 1.007 2.937 2.937v3.442l.168 1.51 1.091.336v.84l-3.945.42.504-2.1c-.672 1.344-1.679 2.1-2.854 2.1-1.259-.085-2.182-.924-2.182-2.435Zm4.616-.42v-1.51c-.755 0-1.259.083-1.678.335-.336.168-.504.504-.504.924 0 .587.336 1.007.923 1.007.42-.084.924-.336 1.26-.756Zm4.616 1.595 1.175-.336.168-1.51v-7.974l-.168-1.51-1.427-.337v-.839l4.449-.42-.168 3.022v8.058l.168 1.51 1.175.336v.84h-5.456v-.84h.084Zm6.212 0 1.175-.336.167-1.51v-7.974l-.167-1.51-1.427-.337v-.839l4.448-.42-.168 3.022v8.058l.168 1.51 1.175.336v.84h-5.455v-.84h.084Zm6.294-3.358c0-2.77 1.763-4.7 4.281-4.7 2.014 0 3.777 1.51 3.609 4.197h-5.204v.084c0 1.678.923 3.105 2.854 3.105a3.2 3.2 0 0 0 1.846-.587l.588.671c-1.259 1.26-2.35 1.763-3.945 1.763-2.434 0-4.029-1.679-4.029-4.533Zm4.197-1.51 1.007-.168c0-1.427-.504-2.015-1.175-2.015-.755 0-1.259.672-1.343 2.183h1.511Zm4.7 4.868 1.176-.336.167-1.51v-3.19l-.167-1.51-1.427-.336v-.84l4.196-.42-.168 1.847c.672-1.175 1.679-1.846 3.19-1.846 1.763 0 2.77 1.09 2.77 3.105v3.19l.168 1.51 1.259.336v.84h-5.036v-.84l.839-.336.168-1.51v-2.518c0-1.092-.504-1.763-1.511-1.763-.504 0-1.091.168-1.679.755v3.526l.168 1.51.756.336v.84h-5.036v-.84h.167Zm12.087 3.609c0-.923 1.007-1.762 1.93-2.098-.923-.168-1.595-.756-1.595-1.427 0-1.007.84-1.763 1.931-2.182-1.259-.504-2.015-1.511-2.015-2.77 0-1.595 1.175-3.273 3.861-3.273.756 0 1.595.167 2.35.587l2.77-.671v1.594h-1.93c.419.504.671.924.671 1.847 0 1.595-1.595 3.105-3.777 3.105-.336 0-.587 0-.923-.084-.42.168-.672.504-.672.672 0 .671.588.587 2.686.923 1.511.168 3.609.252 3.609 2.35 0 1.93-1.678 3.693-5.119 3.693-2.183-.084-3.777-.923-3.777-2.266Zm7.218-.42c0-.67-.756-.923-2.434-1.175l-1.931-.251a1.268 1.268 0 0 0-.671 1.09c0 1.092.923 1.68 2.602 1.68 1.427 0 2.434-.504 2.434-1.343Zm-1.931-8.057c0-1.259-.168-2.35-1.175-2.35-.923 0-1.175 1.007-1.175 2.35 0 1.343.336 2.098 1.175 2.098.756 0 1.175-.839 1.175-2.098Zm4.785 1.51c0-2.77 1.762-4.7 4.28-4.7 2.015 0 3.777 1.51 3.61 4.197h-5.204v.084c0 1.678.923 3.105 2.853 3.105.588 0 1.259-.168 1.847-.587l.587.671c-1.342 1.26-2.35 1.763-3.944 1.763-2.434 0-4.029-1.679-4.029-4.533Zm4.113-1.51 1.007-.168c0-1.427-.504-2.015-1.175-2.015-.756 0-1.259.672-1.343 2.183h1.511Z" fill="#8D7535"/></svg>