<svg width="81" height="20" viewBox="0 0 81 20" fill="none" xmlns="http://www.w3.org/2000/svg"><path fill-rule="evenodd" clip-rule="evenodd" d="M52.956 0.0314783L52.9437 0H49.6911L49.6771 0.0314783L41.0774 19.8003L41.0458 19.8738H44.6782L44.6923 19.8423L46.6886 15.1346H55.8605L57.8306 19.8423L57.8428 19.8738H61.5889L61.5557 19.8003L52.956 0.0314783ZM47.9904 11.9733L51.2606 4.30889L54.5605 11.9733H47.9904Z" fill="#000"></path><path fill-rule="evenodd" clip-rule="evenodd" d="M36.7015 6.42751C36.7015 9.46981 35.055 11.6147 32.063 12.4736L37.3103 19.8966L37.3698 19.9788H33.1793L33.1653 19.9578L28.3676 13.0895H24.1387V19.9788H20.592V0.104987H29.3737C33.8931 0.104987 36.7015 2.52797 36.7015 6.42751ZM24.1387 3.37296V9.90545H29.1218C31.5381 9.90545 33.0988 8.61785 33.0988 6.62522C33.0988 4.52762 31.6764 3.37296 29.0938 3.37296H24.1387Z" fill="#000"></path><path fill-rule="evenodd" clip-rule="evenodd" d="M7.77038 0.106736C10.017 0.106736 11.9066 0.736522 13.2346 1.9244C14.5609 3.11053 15.2625 4.79528 15.2625 6.79666C15.2625 8.92575 14.4594 10.6752 12.9425 11.8998C11.5515 13.0142 9.57602 13.6265 7.37841 13.6265H3.54491V19.9805H0V0.106736H7.77038ZM3.54491 10.3865H7.49041V10.3848C10.024 10.3848 11.6616 9.00971 11.6616 6.87362C11.6616 4.65356 10.1412 3.37471 7.49041 3.37471H3.54491V10.3865Z" fill="#000"></path><path d="M80.7865 0.104962L80.7323 0.187186L72.9217 12.0625V19.9788H69.3278V12.1482L61.5155 0.187186L61.463 0.104962H65.6675L65.6832 0.129454L71.1527 8.81376L76.6782 0.129454L76.694 0.104962H80.7865Z" fill="#000"></path></svg>