<svg width="277" height="56" viewBox="0 0 277 56" fill="none" xmlns="http://www.w3.org/2000/svg"><path d="M274.245 0h-38.453c-1.455 0-2.798 1.175-2.798 2.799V5.54c0 1.456 1.175 2.799 2.798 2.799h13.881v43.77c0 1.456 1.176 2.799 2.799 2.799h5.038c1.455 0 2.798-1.176 2.798-2.799V8.34h13.881c1.456 0 2.799-1.176 2.799-2.799V2.8c0-1.568-1.232-2.799-2.743-2.799ZM175.308 51.058c-6.045-16.792-12.538-33.247-19.591-49.423-.448-1.008-1.511-1.736-2.686-1.624-.616.056-3.191.056-3.751 0-1.119-.056-2.238.616-2.686 1.624-6.997 16.12-13.49 32.576-19.591 49.423-.615 1.903.728 3.806 2.743 3.694l4.59-.168c1.119-.056 2.239-.783 2.575-1.903 1.287-3.75 2.63-7.5 3.918-11.194.951-2.855 2.015-5.71 3.022-8.508a758.496 758.496 0 0 1 7.277-18.695 619.569 619.569 0 0 1 7.276 18.695c1.007 2.799 2.015 5.653 3.022 8.508 1.288 3.694 2.687 7.444 3.919 11.194.335 1.064 1.399 1.847 2.574 1.903l4.59.168c2.071.056 3.414-1.903 2.799-3.694ZM66.769 1.26h-2.071c-.895 0-1.735.447-2.239 1.175l-16.4 23.228-16.4-23.228a2.66 2.66 0 0 0-2.239-1.176h-2.07a2.687 2.687 0 0 0-2.687 2.687v47.576a2.687 2.687 0 0 0 2.686 2.687h4.87a2.687 2.687 0 0 0 2.687-2.687v-29.72l11.026 15.447a2.65 2.65 0 0 0 2.127 1.064c.784 0 1.567-.336 2.127-1.064l11.027-15.448v29.722a2.687 2.687 0 0 0 2.686 2.686h4.87a2.687 2.687 0 0 0 2.687-2.687V3.947c-.056-1.511-1.232-2.687-2.687-2.687ZM0 52.054V2.8C0 1.343 1.175 0 2.743 0H7.5c1.456 0 2.743 1.175 2.743 2.799v49.255c0 1.456-1.175 2.799-2.743 2.799H2.687A2.786 2.786 0 0 1 0 52.054ZM93.082 35.71h6.102c4.029 0 7.78-.615 11.194-1.959 3.414-1.343 6.157-3.358 8.172-6.157 2.127-2.742 3.19-6.1 3.19-10.075 0-5.989-2.071-10.355-6.101-13.21C111.665 1.4 106.348 0 99.855 0H85.078c-1.343 0-2.518 1.12-2.518 2.519v49.815c0 1.343 1.12 2.519 2.518 2.519h5.542c1.343 0 2.518-1.12 2.518-2.519V35.71h-.056Zm6.493-26.978c3.638 0 6.381.727 8.172 2.295 1.903 1.399 2.855 3.862 2.855 7.22-.224 2.966-1.232 5.205-3.191 6.66-1.903 1.4-4.421 2.184-7.668 2.184h-6.66V8.73h6.492ZM219.463 6.633l-1.399 3.358c-.448 1.008-1.623 1.567-2.743 1.287a86.967 86.967 0 0 0-4.813-1.287c-1.176-.224-2.687-.336-4.422-.336-2.799 0-5.317.784-7.556 2.351-2.239 1.511-3.974 3.75-5.262 6.66-1.231 2.855-1.959 6.27-1.959 10.132 0 3.47.56 6.604 1.624 9.515 1.063 2.91 2.742 5.15 4.869 6.829 2.127 1.735 4.646 2.518 7.556 2.518 3.191 0 6.493-.56 9.74-1.735 1.063-.336 2.294.112 2.798 1.12l1.791 3.47c.616 1.175.056 2.687-1.175 3.19-1.399.56-3.135 1.008-4.87 1.4-2.798.615-5.373.895-7.612.895-5.373 0-9.907-1.175-13.657-3.526-3.806-2.407-6.661-5.597-8.564-9.683-1.903-4.086-2.911-8.732-2.911-13.881 0-5.374 1.008-10.131 3.135-14.33 2.127-4.141 5.093-7.444 8.956-9.794 3.862-2.351 8.339-3.527 13.433-3.527 1.903 0 4.142.28 6.829.84 1.847.392 3.526.895 5.093 1.511 1.063.504 1.567 1.847 1.119 3.023Z" fill="#000"/></svg>