<svg width="196" height="196" fill="none" xmlns="http://www.w3.org/2000/svg"><style>@media(prefers-color-scheme:dark){#favicon-path{fill:#e5e5e5}}</style><path id="favicon-path" d="M34.453 182.995c3.887-.24 7.896-.24 11.662-.366 5.712-.244 10.085-4.871 9.842-10.347a2739.13 2739.13 0 0 1 0-148.198c.122-5.724-4.13-10.347-9.842-10.473-3.766-.24-7.653-.24-11.662-.362-5.59-.248-10.329 4.262-10.45 9.742a2807.007 2807.007 0 0 0 0 150.018 10.159 10.159 0 0 0 3.135 7.19 10.122 10.122 0 0 0 7.315 2.796ZM149.884 182.507c3.766.244 7.653.244 11.662.366 5.469.243 10.329-4.262 10.451-9.864a2805.957 2805.957 0 0 0 0-150.018 10.17 10.17 0 0 0-.845-3.912 10.134 10.134 0 0 0-5.667-5.414 10.093 10.093 0 0 0-3.939-.66c-3.765.24-7.653.24-11.662.366-5.59.24-9.968 4.989-9.842 10.47a2740.349 2740.349 0 0 1 0 148.197c-.122 5.72 4.131 10.347 9.842 10.469ZM92.168 113.466h11.663c5.711 0 10.085-4.384 10.085-10.108V91.667a10.101 10.101 0 0 0-2.946-7.155 10.04 10.04 0 0 0-7.139-2.953H92.168a10.129 10.129 0 0 0-7.115 2.977 10.173 10.173 0 0 0-2.97 7.13v11.692a10.096 10.096 0 0 0 2.947 7.155 10.065 10.065 0 0 0 7.138 2.953Z" fill="#000"/></svg>