<svg xmlns="http://www.w3.org/2000/svg" width="477.706" height="60" viewBox="0 0 478 60" xmlns:xlink="http://www.w3.org/1999/xlink"><defs><path data-name="Path 2320" d="M420.926 4.088v51.825a2.889 2.889 0 0 1-2.9 2.9h-6.609a2.939 2.939 0 0 1-2.377-1.248L373.697 7.393a2.853 2.853 0 0 1 .242-3.587l2.982-2.1a3.161 3.161 0 0 1 1.531-.524h.323a2.888 2.888 0 0 1 2.377 1.248l28.774 40.587V4.088a2.913 2.913 0 0 1 2.9-2.9h5.239a2.933 2.933 0 0 1 2.861 2.9Z" id="reuse-0"/><path data-name="Path 2321" d="M377.366 24.359a2.276 2.276 0 0 0-4.152 1.29v30.264a2.889 2.889 0 0 0 2.9 2.9h5.158a2.889 2.889 0 0 0 2.9-2.9V38.907a15.385 15.385 0 0 0-2.781-8.826Z" id="reuse-1"/></defs><g data-name="Group 2270"><path data-name="Path 2315" d="M74.741 4.863 59.088 56.782a2.852 2.852 0 0 1-2.732 2.029h-5.035a2.852 2.852 0 0 1-2.748-2.088L37.458 16.782 26.344 56.728a2.852 2.852 0 0 1-2.748 2.088h-5.038a2.851 2.851 0 0 1-2.73-2.024L.128 5.064a2.854 2.854 0 0 1 2.339-3.655L7.655.69a2.854 2.854 0 0 1 3.154 2.115l10.549 40.924L31.576 3.34a2.853 2.853 0 0 1 2.766-2.153h6.583a2.852 2.852 0 0 1 2.763 2.143l10.381 40.4L64.287 3.341a2.853 2.853 0 0 1 2.766-2.153h4.955a2.853 2.853 0 0 1 2.733 3.675Z"/><path data-name="Path 2316" d="M456.692 32.909V30.14a2.853 2.853 0 0 1 2.853-2.853h15.311a2.852 2.852 0 0 1 2.853 2.853v23.828a2.863 2.863 0 0 1-1.692 2.614 40.11 40.11 0 0 1-6.529 2.23 39.362 39.362 0 0 1-9.745 1.187 28.705 28.705 0 0 1-15.213-3.942 26.379 26.379 0 0 1-9.957-10.72 32.559 32.559 0 0 1-3.474-15.084 30.848 30.848 0 0 1 5.57-18.27 27.081 27.081 0 0 1 6.347-6.385 30.273 30.273 0 0 1 18.082-5.6 39.939 39.939 0 0 1 7.712.931 32.43 32.43 0 0 1 5.316 1.541 2.867 2.867 0 0 1 1.6 3.825l-1.313 2.977a2.834 2.834 0 0 1-3.206 1.668c-.089-.022-.125-.025-.112-.011q-3.221-.931-5.127-1.313a24.45 24.45 0 0 0-4.7-.381 19.1 19.1 0 0 0-9.492 2.372 17 17 0 0 0-6.736 7.077 24.191 24.191 0 0 0-2.5 11.484 26.275 26.275 0 0 0 2.119 10.89 16.273 16.273 0 0 0 5.975 7.2 15.914 15.914 0 0 0 8.856 2.5 41.381 41.381 0 0 0 8.389-.931V35.762h-8.333a2.853 2.853 0 0 1-2.854-2.853Z"/><path data-name="Path 2317" d="M268.047 58.813h-20.791a2.852 2.852 0 0 1-2.852-2.852V4.039a2.852 2.852 0 0 1 2.852-2.852h19.52q8.9 0 13.9 3.9t5 12.2q0 5.425-6.185 10.255 8.9 4.661 8.9 14.322 0 7.881-5.509 12.414t-14.835 4.535Zm-2.88-48.473h-9.829v14.322h8.136a14.3 14.3 0 0 0 7.712-1.821 5.965 5.965 0 0 0 2.882-5.381q0-3.9-2.245-5.509t-6.656-1.611Zm2.8 23.22h-12.632v16.187h11.86a11.34 11.34 0 0 0 7.118-2.034 6.864 6.864 0 0 0 2.628-5.762 7.953 7.953 0 0 0-2.415-6.186 9.369 9.369 0 0 0-6.562-2.205Z"/><path data-name="Path 2318" d="M168.404 49.707h-24.3V4.047a2.856 2.856 0 0 0-2.856-2.856h-5.26a2.857 2.857 0 0 0-2.858 2.856v51.91a2.856 2.856 0 0 0 2.858 2.856H168.4a2.371 2.371 0 0 0 2.371-2.37v-4.366a2.371 2.371 0 0 0-2.367-2.37Z"/><path data-name="Path 2319" d="M214.507 49.707h-24.3V4.047a2.856 2.856 0 0 0-2.856-2.856h-5.26a2.856 2.856 0 0 0-2.858 2.856v51.91a2.856 2.856 0 0 0 2.857 2.856h32.413a2.371 2.371 0 0 0 2.37-2.37v-4.366a2.37 2.37 0 0 0-2.366-2.37Z"/><g data-name="Group 2272" fill="#010101"><g data-name="Group 2270"><use data-name="Path 2320" xlink:href="#reuse-0"/><use data-name="Path 2321" xlink:href="#reuse-1"/></g><g data-name="Group 2271"><use data-name="Path 2322" xlink:href="#reuse-0"/><use data-name="Path 2323" xlink:href="#reuse-1"/></g></g><path data-name="Path 2324" d="M346.931 55.871V4.088a2.889 2.889 0 0 1 2.9-2.9h5.159a2.889 2.889 0 0 1 2.9 2.9v51.825a2.889 2.889 0 0 1-2.9 2.9h-5.159a2.949 2.949 0 0 1-2.9-2.942Z" fill="#010101"/><g data-name="Group 2273" fill="#010101"><path data-name="Path 2325" d="M297.709 56.156V3.805a2.612 2.612 0 0 1 2.618-2.618h29.155a2.612 2.612 0 0 1 2.618 2.618v3.422a2.613 2.613 0 0 1-2.618 2.618h-20.86v40.391h20.86a2.612 2.612 0 0 1 2.618 2.618v3.343a2.612 2.612 0 0 1-2.618 2.617h-29.155a2.672 2.672 0 0 1-2.618-2.658Z"/><path data-name="Path 2326" d="M323.36 27.926v3.424a2.611 2.611 0 0 1-2.617 2.617h-3.424a2.612 2.612 0 0 1-2.618-2.617v-3.424a2.613 2.613 0 0 1 2.618-2.618h3.424a2.666 2.666 0 0 1 2.617 2.618Z"/></g><g data-name="Group 2274" fill="#010101"><path data-name="Path 2327" d="M83.899 56.156V3.805a2.612 2.612 0 0 1 2.618-2.618h29.155a2.612 2.612 0 0 1 2.618 2.618v3.422a2.613 2.613 0 0 1-2.618 2.618h-20.86v40.391h20.86a2.612 2.612 0 0 1 2.618 2.618v3.343a2.612 2.612 0 0 1-2.618 2.617H86.517a2.672 2.672 0 0 1-2.618-2.658Z"/><path data-name="Path 2328" d="M109.552 27.926v3.424a2.612 2.612 0 0 1-2.618 2.617h-3.423a2.611 2.611 0 0 1-2.617-2.617v-3.424a2.612 2.612 0 0 1 2.617-2.618h3.424a2.667 2.667 0 0 1 2.617 2.618Z"/></g></g></svg>