<svg xmlns="http://www.w3.org/2000/svg" width="1333" height="380.52" viewBox="0 0 1333 380" xml:space="preserve"><path fill="#C11019" d="M381.271 93.645c-2.02-30.701-18.739-49.508-55.897-49.508H211.882l.001 20.704h96.895c26.12 1.682 27.484 20.745 28.496 29.592l14.631 170.689h43.737L381.271 93.645z"/><path fill="#C11019" d="m342.659 265.119-43.97-.012-12.681-149.86c-.946-6.739-2.598-19.137-23.523-20.027h-28.387V74.686h71.186c14.615.808 19.804 5.771 22.013 18.059l15.362 172.374z"/><path fill="#C11019" d="M288.985 265.122H244.93l-10.541-131.028c-1.266-5.118-9.377-10.745-22.714-10.745l-.01-18.597h49.074c14.166 1.327 15.255 4.584 16.596 17.696l11.65 142.674zM.727 221.837l.05 44.471c111.396 2.896 111.829-3.94 144.06-125.5 2.755-10.389 20.677-17.044 33.126-17.459l.044-18.771h-30.949c-23.186 1.247-26.772-7.217-55.747 73.751-16.825 47.016-48.35 42.862-90.584 43.508z"/><path fill="#C11019" d="m.69 169.153.107 42.097c81.309-.175 68.615-13.433 106.923-100.895 6.252-14.274 23.838-15.394 46.748-15.03l.011-20.74h-32.065c-34.939 2.396-27.005 3.836-58.7 70.723-11.022 23.26-36.229 23.64-63.024 23.845z"/><path fill="#C11019" d="M.695 114.977.76 158.83c51.529-.664 45.52-.899 75.939-69 12.481-27.938 33.365-24.91 101.07-24.932l.012-20.775h-22.717c-67.776-.012-90.062-4.565-109.392 45.734-5.527 14.38-9.466 25.015-44.977 25.12z"/><path d="M534.409 11.942c-1.576 5.706-2.423 13.279-2.533 22.716h-5.847v-6.587c0-4.277-.578-7.185-1.729-8.723-1.155-1.535-4.163-3.167-9.022-4.897-4.86-1.729-9.981-2.594-15.362-2.594-8.787 0-15.696 2.202-20.72 6.602-5.024 4.403-7.536 10.052-7.536 16.949 0 4.348 1.028 8.08 3.091 11.204 2.062 3.124 4.838 5.38 8.33 6.767 3.49 1.385 10.897 2.606 22.225 3.665 11.324 1.096 18.979 2.548 22.966 4.357 3.984 1.809 7.173 4.711 9.567 8.712 2.39 4 3.587 8.741 3.587 14.219 0 11.018-4.623 20.496-13.865 28.44-9.243 7.948-21.566 11.918-36.967 11.918-5.284 0-10.606-.545-15.971-1.636-5.366-1.09-10.771-2.694-16.215-4.819.962-6.572 1.418-15.009 1.364-25.311h5.651v4.105c0 5.313.274 8.599.822 9.856.548 1.26 1.842 2.601 3.876 4.022 3.02 2.138 6.62 3.766 10.798 4.887 4.177 1.122 8.684 1.684 13.521 1.684 10.387 0 18.409-2.43 24.069-7.293 5.661-4.859 8.493-11.034 8.493-18.519 0-4.37-.961-8.068-2.887-11.102-1.924-3.033-4.618-5.287-8.081-6.76-3.466-1.474-9.869-2.595-19.213-3.361-12.428-.981-20.867-2.457-25.318-4.424-4.453-1.968-7.945-5.067-10.473-9.299-2.529-4.233-3.794-9.492-3.794-15.777 0-10.651 3.887-19.361 11.663-26.137 7.773-6.772 18.524-10.162 32.258-10.162 5.511 0 11.041.604 16.581 1.803 5.544 1.206 11.099 3.035 16.671 5.495zM649.012 28.149c2.521 0 4.688-.896 6.498-2.693 1.809-1.792 2.716-3.967 2.716-6.525 0-2.551-.907-4.74-2.716-6.562-1.81-1.82-3.977-2.734-6.498-2.734-2.582 0-4.777.914-6.587 2.734-1.808 1.821-2.712 4.011-2.712 6.562 0 2.559.904 4.733 2.712 6.525 1.809 1.798 4.005 2.693 6.587 2.693zM658.387 116.108c-.822-.769-1.346-2.138-1.565-4.111-.492-5.04-.739-11.432-.739-18.554 0-7.616.171-19.42.513-35.418.097-4.931.316-9.448.656-13.559l-1.951-1.234c-4.938 1.949-8.971 3.331-12.088 4.142-3.118.812-7.987 1.704-14.606 2.679v4.872h6.037c2.899 0 4.764.357 5.597 1.068.832.713 1.301 1.922 1.41 3.622.269 4.605.402 11.158.402 19.657 0 12.229-.134 21.826-.402 28.786-.165 4.497-.555 7.144-1.169 7.938-.618.799-2.27 1.304-4.951 1.68l-9.73.74v.039h-7.576c-2.191-.781-3.559-1.545-4.107-3.079-.548-1.532-.873-9.659-.984-24.384-.164-15.597-.577-25.368-1.235-29.307-.932-5.256-3.718-9.58-8.355-12.973-4.636-3.392-10.742-5.09-18.314-5.09-3.46 0-6.711.443-9.756 1.33s-6.599 2.494-10.658 4.819l-8.972 5.152.082 5.7-.082 5.533 4.676 1.239a361.044 361.044 0 0 1 4.342-11.304 22.855 22.855 0 0 1 6.389-2.923c2.292-.649 4.751-.975 7.375-.975 6.881 0 12.177 2.138 15.892 6.409 2.947 3.411 4.479 8.549 4.588 15.418-17.87 3.182-29.258 5.761-34.164 7.734-4.907 1.973-8.689 5.029-11.349 9.17-2.657 4.141-3.984 8.979-3.984 14.516 0 5.867 1.862 10.541 5.589 14.024 3.728 3.48 9.127 5.223 16.2 5.223 2.631 0 4.687-.237 6.165-.704 1.481-.472 2.987-1.288 4.521-2.445l17.021-13.093c.056 2.448.082 4.865.082 7.26l-.082 7.423c5.177-.39 9.305-.585 12.394-.585 2.435 0 6.723-.277 14.305.099v.02l.206-.01.184.01v-.019c7.926-.376 15.584-.1 21.925-.1 6.559 0 13.828.195 22.896.585v-4.248l-6.691-.74c-3.136-.381-5.115-1.265-5.937-2.032zm-59.286-15.029c-3.388 4.531-6.953 7.945-10.695 10.234-3.744 2.293-7.662 3.438-11.761 3.438-3.715 0-6.748-1.212-9.099-3.642-2.35-2.43-3.522-5.663-3.522-9.7 0-6.005 2.046-10.438 6.145-13.304 4.1-2.865 13.743-5.935 28.933-9.211l-.193 4.011.192 18.174zM762.07 118.259c-2.993 0-5.006-.873-6.038-2.627-.762-1.367-1.141-6.514-1.141-15.435l.388-25.867c0-8.099-.932-14.053-2.803-17.859-1.869-3.803-4.952-6.896-9.237-9.277-4.288-2.381-9.376-3.57-15.26-3.57-3.626 0-7.257.608-10.887 1.825-1.651.609-3.218 1.578-4.701 2.906l-12.454 11.123.164-11.19.081-3.149c0-1.269-.438-1.905-1.314-1.905-.439 0-.901.109-1.395.329-4.652 1.918-8.842 3.343-12.563 4.275-3.725.932-7.939 1.669-12.647 2.216v4.872h5.908c3.557 0 5.715.329 6.481.984.765.654 1.203 1.854 1.313 3.599.218 5.292.329 12.604.329 21.929 0 20.784-.345 32.117-1.027 34-.685 1.882-3.051 2.822-7.097 3.29l-6.999.156v4.248c8.519-.39 15.149-.585 20.985-.585 5.498 0 12.898.195 22.2.585v-4.872h-5.863c-3.134 0-5.391-.627-6.765-1.885-.719-.65-1.103-2.262-1.158-4.828-.164-8.569-.246-17.851-.246-27.841 0-9.006.272-14.572.819-16.703.876-3.223 3.162-6.169 6.854-8.844 3.689-2.674 8.19-4.013 13.493-4.013 4.266 0 7.916.932 10.952 2.789 3.039 1.86 5.2 4.32 6.484 7.384 1.283 3.063 1.932 8.258 1.932 15.584 0 18.157-.522 32.565-1.559 43.229 4.773-.39 9.248-.585 13.418-.585 4.278 0 9.353.195 15.229.585v-4.872h-5.876zM977.181 23.991l-24.376 50.763c-9.142 19.055-16.637 35.702-22.491 49.937h-3.507c-2.013-4.865-7.771-17.363-17.285-37.489L880.33 26.416v63.347c0 14.749.595 23.124 1.789 25.118 1.193 1.994 4.896 2.989 11.112 2.989h3.078v5.262c-7.687-.39-13.932-.585-18.743-.585-3.484 0-10.419.195-20.816.585v-5.262h5.421c3.666 0 6.108-.518 7.332-1.555 1.225-1.039 1.974-2.927 2.254-5.662.648-7.655.973-15.915.973-24.775V39.445c0-11.212-.251-18.623-.742-22.235-.221-1.856-1.037-3.279-2.445-4.266-1.405-.983-4.206-1.477-8.403-1.477h-4.389v-5.26c9.562.39 15.583.585 18.055.585 3.132 0 7.579-.195 13.353-.585 6.618 14.729 14.249 30.963 22.891 48.703l21.578 44.43 19.937-41.145c7.007-14.399 14.992-31.729 23.966-51.988 6.905.39 11.762.585 14.579.585 3.258 0 9.138-.195 17.646-.585v5.261h-5.412c-4.884 0-7.866.835-8.946 2.503-1.081 1.669-1.622 7.674-1.622 18.009v59.968c0 13.347.567 21.004 1.705 22.971 1.141 1.968 4.317 2.951 9.529 2.951h4.746v5.262a436.44 436.44 0 0 0-22.07-.585c-7.746 0-15.848.195-24.311.585v-5.262h5.493c4.379 0 7.026-.943 7.943-2.831.913-1.888 1.372-9.998 1.372-24.332V23.991zM1150.595 44.687c-1.601-.708-3.913-1.063-6.943-1.063-2.923 0-5.704.745-8.351 2.234-2.645 1.491-5.51 4.251-8.594 8.279-2.592 3.423-4.988 6.185-7.191 8.278l.389-16.442c0-1.163-.114-1.909-.332-2.241-.221-.332-.63-.499-1.233-.499-.495 0-1.131.201-1.896.597-3.241 1.534-6.952 2.802-11.125 3.794-4.177.996-8.926 1.807-14.258 2.43v4.872h6.905c3.779 0 6.023.737 6.733 2.211 1.043 2.292 1.563 10.015 1.563 23.168 0 10.807-.191 20.14-.577 27.998-.218 4.477-.698 7.126-1.436 7.942-.739.817-2.504 1.336-5.301 1.555l-8.664.656h-8.007c-2.193 0-3.558-.765-4.107-2.301-.546-1.531-.874-10.438-.981-25.162-.164-15.597-.582-25.368-1.239-29.307-.932-5.256-3.717-9.58-8.352-12.973-4.64-3.392-10.745-5.09-18.318-5.09-3.46 0-6.71.443-9.755 1.33s-6.598 2.494-10.657 4.819l-8.974 5.152.083 5.7-.083 5.533 4.678 1.239a361.256 361.256 0 0 1 4.344-11.304 22.793 22.793 0 0 1 6.385-2.923c2.293-.649 4.75-.975 7.377-.975 6.881 0 12.177 2.138 15.89 6.409 2.946 3.411 4.481 8.549 4.589 15.418-17.869 3.182-29.258 5.761-34.163 7.734-4.908 1.973-8.693 5.029-11.35 9.17s-3.985 8.979-3.985 14.516c0 5.867 1.863 10.541 5.592 14.024 3.726 3.48 9.125 5.223 16.197 5.223 2.631 0 4.687-.237 6.168-.704 1.48-.472 2.985-1.288 4.521-2.445l17.02-13.093c.054 2.448.084 4.865.084 7.26l-.084 7.423c5.177-.39 9.308-.585 12.391-.585 2.47 0 6.822.194 14.738.579v.006l.061-.003c.017.002.035.002.054.003v-.005c7.881-.386 15.075-.58 22.35-.58 7.531 0 15.505.195 23.915.585v-4.676h-4.956c-4.071 0-7.152-.574-9.242-1.725-.884-.489-1.437-1.692-1.654-3.607-.605-5.196-.906-11.596-.906-19.199 0-11.539.462-19.277 1.388-23.218.925-3.936 2.77-7 5.526-9.186 2.748-2.187 5.736-3.283 8.955-3.283 2.399 0 4.459.558 6.176 1.672 1.717 1.115 3.203 3.026 4.457 5.734h3.702c.125-7.966.642-14.162 1.561-18.583l.083-.819c-.004-.704-.391-1.222-1.161-1.552zm-87.44 56.392c-3.389 4.531-6.956 7.945-10.696 10.234-3.74 2.293-7.66 3.438-11.759 3.438-3.716 0-6.749-1.212-9.099-3.642-2.353-2.43-3.522-5.663-3.522-9.7 0-6.005 2.048-10.438 6.144-13.304 4.099-2.865 13.743-5.935 28.933-9.211l-.194 4.011.193 18.174zM1163.735 166.429l3.898-12.894h1.898c1.484 1.754 2.968 3.07 4.458 3.946 1.482.878 2.996 1.315 4.537 1.315 3.412 0 6.52-1.655 9.326-4.964 2.809-3.309 7.128-12.52 12.961-27.632-2.403-6.327-7.218-18.41-14.436-36.25l-7.631-18.734-6.152-14.32c-1.917-4.949-4.795-7.424-8.631-7.424h-3.289V44.6c5.669.39 10.687.585 15.054.585 3.38 0 11.263-.195 23.644-.585v4.872h-6.085c-2.08 0-3.604.354-4.563 1.054-.958.703-1.436 1.567-1.436 2.594 0 .864.52 2.729 1.562 5.59 5.546 15.204 12.081 31.5 19.608 48.891 7.258-15.913 13.584-31.251 18.975-46.019 1.588-4.28 2.382-6.881 2.382-7.801 0-1.732-1.862-2.871-5.591-3.413l-6.084-.896V44.6c6.472.39 12.23.585 17.275.585 4.768 0 9.567-.195 14.392-.585v4.872h-2.874c-1.261 0-2.551.365-3.866 1.092a8.806 8.806 0 0 0-3.206 3.027c-1.753 2.749-6.849 13.365-15.276 31.84-2.313 5.086-8.211 18.861-17.687 41.331-8.332 18.987-13.046 29.412-14.144 31.28-2.138 3.622-4.878 6.406-8.219 8.356-3.347 1.947-6.962 2.922-10.852 2.922-1.59 0-3.224-.251-4.895-.744-1.671-.499-3.354-1.214-5.053-2.147zM1278.916 97.797v5.387c0 4.31.382 6.988 1.152 8.036 1.425 1.769 4.21 3.482 8.359 5.139 4.143 1.657 8.412 2.485 12.806 2.485 5.654 0 10.267-1.52 13.837-4.561 3.57-3.043 5.353-6.672 5.353-10.892 0-3.344-1.049-6.029-3.138-8.058-2.087-2.025-6.078-3.642-11.959-4.848-10.946-2.193-18.18-4.111-21.696-5.754-3.522-1.645-6.162-3.838-7.923-6.578-1.758-2.74-2.639-6.056-2.639-9.948 0-7.288 2.663-13.211 7.997-17.761 5.329-4.549 12.884-6.822 22.667-6.822 7.731 0 15.442 1.537 23.123 4.609-.483 3.732-.874 9.992-1.17 18.775h-5.069c-.11-4.83-.632-8.016-1.563-9.553-1.264-2.027-3.568-3.867-6.918-5.514-3.352-1.648-6.919-2.474-10.707-2.474-4.997 0-8.995 1.276-11.982 3.822-2.994 2.549-4.49 5.74-4.49 9.575 0 3.674 1.186 6.44 3.553 8.301 2.37 1.92 8.926 3.946 19.669 6.084 7.935 1.59 13.168 3.07 15.702 4.438 2.532 1.37 4.573 3.449 6.117 6.239 1.541 2.788 2.313 5.988 2.313 9.6 0 7.388-3.179 13.76-9.537 19.122-6.356 5.361-14.846 8.042-25.467 8.042-6.771 0-14.365-1.057-22.787-3.167-1.486-.378-2.229-.954-2.229-1.728l.26-1.159c.23-.825.433-2.287.604-4.382.519-5.347.778-9.509.778-12.487l-.083-3.971h5.067zM447.044 152.908v-5.262c11.315.39 19.542.584 24.677.584 5.408 0 13.357-.194 23.848-.584v5.262h-6.038c-5.184 0-8.299.986-9.345 2.954-1.048 1.965-1.572 10.872-1.572 26.719v32.13c0 11.746.643 19.914 1.932 24.506 1.287 4.591 4.618 8.472 9.993 11.636 5.37 3.171 12.555 4.756 21.546 4.756 9.263 0 17.075-1.692 23.437-5.081 4.384-2.349 7.592-5.997 9.618-10.94 2.028-4.947 3.045-14.332 3.045-28.155v-30.899c0-14.317-.647-22.5-1.944-24.549-1.297-2.05-4.866-3.075-10.71-3.075h-4.3v-5.262c11.438.39 18.705.584 21.803.584 5.026 0 11.271-.194 18.731-.584v5.262h-5.66c-4.385 0-7.198 1.163-8.446 3.49-1.249 2.325-1.873 10.488-1.873 24.488v30.768c0 14.057-.7 23.532-2.101 28.431-1.401 4.896-3.956 9.312-7.661 13.248-3.709 3.938-8.651 7.058-14.829 9.353-6.181 2.293-13.443 3.445-21.789 3.445-8.624 0-16.178-1.027-22.657-3.078-6.479-2.048-11.354-4.575-14.621-7.585-3.268-3.009-5.628-6.687-7.083-11.036-1.455-4.347-2.184-11.747-2.184-22.192l.164-15.592v-25.023c0-15.423-.456-24.063-1.367-25.925-.91-1.859-3.821-2.791-8.731-2.791h-5.883zM687.06 169.588c2.521 0 4.688-.896 6.498-2.691 1.809-1.794 2.716-3.967 2.716-6.525 0-2.551-.907-4.74-2.716-6.562-1.81-1.82-3.977-2.734-6.498-2.734-2.582 0-4.777.914-6.587 2.734-1.807 1.821-2.712 4.011-2.712 6.562 0 2.559.905 4.731 2.712 6.525 1.809 1.795 4.005 2.691 6.587 2.691zM702.367 258.961c-3.13-.386-5.11-.956-5.933-1.727-.822-.766-1.345-2.137-1.563-4.109-.495-5.039-.74-11.12-.74-18.24 0-7.615.169-19.421.512-35.421.097-4.929.316-9.448.657-13.559l-1.952-1.233c-4.938 1.95-8.97 3.332-12.088 4.141-3.118.813-7.987 1.706-14.606 2.681v4.872h6.037c2.899 0 4.764.355 5.598 1.069.831.712 1.3 1.92 1.409 3.619.269 4.607.403 11.162.403 19.66 0 12.229-.135 21.822-.403 28.783-.164 4.5-.554 7.147-1.169 7.938-.618.8-2.27 1.304-4.951 1.525l-11.615 1.191v-.141h-6.033c-2.992 0-5.006-.875-6.037-2.63-.762-1.364-1.143-6.824-1.143-15.744l.39-25.867c0-8.1-.936-14.053-2.805-17.858-1.87-3.804-4.95-6.898-9.237-9.278-4.292-2.381-9.377-3.572-15.259-3.572-3.631 0-7.259.609-10.889 1.827-1.651.609-3.215 1.578-4.702 2.904l-12.452 11.123.164-11.188.082-3.149c0-1.271-.438-1.906-1.316-1.906-.438 0-.9.109-1.395.328-4.652 1.92-8.842 3.344-12.563 4.275-3.725.934-7.938 1.669-12.646 2.218v4.872h5.907c3.556 0 5.716.328 6.482.983.765.654 1.202 1.854 1.313 3.599.22 5.291.328 12.603.328 21.932 0 20.783-.343 32.117-1.025 33.998-.686 1.881-3.051 2.824-7.098 2.824h-5.907v4.868c7.426-.388 14.059-.585 19.892-.585 5.5 0 12.902.197 22.201.585v-4.868h-5.861c-3.137 0-5.393-.627-6.766-1.887-.719-.65-1.103-2.263-1.157-4.827a1461.77 1461.77 0 0 1-.246-27.843c0-9.007.27-14.573.817-16.703.878-3.223 3.162-6.17 6.854-8.843 3.692-2.674 8.192-4.013 13.497-4.013 4.266 0 7.916.932 10.953 2.789 3.035 1.861 5.196 4.321 6.481 7.383 1.285 3.063 1.93 8.258 1.93 15.583 0 18.159-.521 32.565-1.558 43.229 4.773-.388 9.246-.585 13.418-.585 4.244 0 9.278.194 15.244.58v.005c.031 0 .057 0 .088-.002.019.002.034.002.053.002v-.002c11.296-.386 17.778-.583 24.199-.583 6.56 0 13.827.197 21.806.585v-4.868l-5.6-.74zM762.835 191.493v-4.871c5.669.389 10.734.583 15.194.583 5.174 0 10.708-.194 16.598-.583v4.871h-2.549c-1.26 0-2.493.246-3.698.739-.875.385-1.589.878-2.138 1.48-.547.604-2.522 4.406-5.92 11.413-6.138 12.782-10.837 22.872-14.093 30.278-3.261 7.406-7.389 17.386-12.386 29.947h-8.84a1600.44 1600.44 0 0 0-22.197-52.73c-2.797-6.223-4.496-10.209-5.1-11.957-1.205-3.546-2.563-5.962-4.071-7.247-1.507-1.282-3.436-1.924-5.794-1.924h-2.713v-4.871c8.047.389 14.755.583 20.119.583 5.75 0 12.046-.194 18.891-.583v4.871h-3.619c-3.34 0-5.697.355-7.068 1.063-.932.547-1.396 1.364-1.396 2.453 0 .926.493 2.808 1.48 5.643.985 2.835 7.627 19.432 19.927 49.792l14.72-35.575c3.34-8.233 5.396-13.931 6.164-17.089.218-.87.328-1.604.328-2.205 0-1.034-.355-1.795-1.068-2.286-.71-.486-2.546-.896-5.508-1.224l-5.263-.571zM813.882 197.546c3.681-4.424 8.597-6.638 14.756-6.638 3.955 0 7.445.881 10.467 2.635 3.02 1.754 5.137 3.955 6.346 6.601 1.926 4.269 2.887 8.779 2.887 13.528v4.538c-3.848.376-7.833.567-11.949.567-10.281 0-19.679-.194-28.193-.585.106-9.337 1.999-16.218 5.686-20.646zm14.675 27.076c10.416 0 18.557-.229 24.425-.699 3.288-.292 6.744-.904 10.359-1.835l.196-4.81c0-10.168-2.847-18.078-8.534-23.732-5.689-5.655-13.403-8.484-23.13-8.484-6.43 0-13.057 1.892-19.869 5.671-6.82 3.777-11.489 7.883-14.019 12.316-3.848 6.735-5.772 14.704-5.772 23.904 0 12.049 3.415 21.589 10.244 28.622 6.83 7.04 15.811 10.556 26.951 10.556 5.098 0 10.063-.65 14.89-1.949 4.827-1.295 9.517-3.245 14.073-5.845l2.633-6.979-1.395-1.245c-3.723 2.483-7.469 4.344-11.243 5.582-3.775 1.242-7.572 1.863-11.405 1.863-8.533 0-15.426-2.794-20.673-8.377-5.255-5.587-8.015-13.771-8.29-24.559h20.559zM900.071 203.855c2.202-2.096 4.6-4.857 7.19-8.28 3.084-4.028 5.949-6.787 8.595-8.277 2.645-1.49 5.427-2.236 8.353-2.236 3.026 0 5.341.357 6.941 1.065.77.329 1.157.847 1.157 1.555l-.083.817c-.92 4.423-1.439 10.618-1.559 18.583h-3.705c-1.254-2.705-2.74-4.618-4.456-5.733-1.718-1.112-3.774-1.671-6.174-1.671-3.219 0-6.207 1.097-8.959 3.282-2.755 2.187-4.6 5.249-5.524 9.188-.924 3.939-1.386 11.677-1.386 23.215 0 7.604.298 14.008.904 19.198.222 1.916.772 3.119 1.654 3.612 2.09 1.149 5.17 1.72 9.245 1.72h4.952v4.677c-8.409-.388-16.38-.585-23.915-.585-7.311 0-14.537.197-21.685.585v-4.677l7.885-.65c2.797-.222 4.562-.738 5.305-1.559.734-.816 1.215-3.464 1.436-7.941.382-7.859.572-17.192.572-27.998 0-13.154-.516-20.875-1.557-23.169-.714-1.474-2.959-2.21-6.738-2.21h-6.902v-4.872c5.329-.625 10.078-1.435 14.254-2.43 4.178-.992 7.885-2.26 11.127-3.794.767-.396 1.396-.598 1.896-.598.604 0 1.012.168 1.233.5.22.332.334 1.078.334 2.241l-.39 16.442zM947.108 239.238v5.385c0 4.308.382 6.991 1.151 8.036 1.425 1.77 4.213 3.483 8.362 5.14 4.141 1.657 8.409 2.484 12.804 2.484 5.653 0 10.269-1.52 13.84-4.559 3.564-3.042 5.353-6.672 5.353-10.893 0-3.344-1.048-6.031-3.138-8.058s-6.078-3.642-11.959-4.848c-10.95-2.193-18.18-4.11-21.699-5.756-3.521-1.642-6.161-3.836-7.92-6.576-1.761-2.74-2.639-6.057-2.639-9.948 0-7.29 2.662-13.211 7.993-17.761 5.333-4.55 12.885-6.824 22.667-6.824 7.735 0 15.445 1.537 23.121 4.611-.478 3.732-.868 9.993-1.167 18.773h-5.065c-.111-4.828-.637-8.014-1.568-9.551-1.263-2.029-3.566-3.867-6.916-5.514-3.35-1.648-6.917-2.474-10.705-2.474-5.001 0-8.998 1.276-11.985 3.821-2.995 2.549-4.489 5.74-4.489 9.576 0 3.672 1.185 6.44 3.555 8.301 2.369 1.917 8.925 3.946 19.67 6.083 7.932 1.592 13.163 3.07 15.698 4.437 2.534 1.37 4.573 3.451 6.12 6.24 1.537 2.787 2.31 5.99 2.31 9.599 0 7.389-3.176 13.76-9.534 19.124-6.358 5.361-14.846 8.042-25.467 8.042-6.773 0-14.367-1.057-22.789-3.167-1.486-.379-2.229-.955-2.229-1.726l.26-1.161c.229-.823.433-2.286.606-4.383.516-5.346.775-9.507.775-12.486l-.084-3.97h5.068zM1026.986 151.075c2.522 0 4.692.914 6.502 2.734 1.806 1.821 2.714 4.011 2.714 6.562 0 2.559-.908 4.731-2.714 6.525-1.81 1.796-3.979 2.691-6.502 2.691-2.579 0-4.775-.896-6.586-2.691-1.808-1.794-2.713-3.967-2.713-6.525 0-2.551.905-4.74 2.713-6.562 1.811-1.82 4.007-2.734 6.586-2.734zm6.29 33.597 1.948 1.233c-.34 4.11-.558 8.63-.653 13.559-.344 16-.513 27.806-.513 35.421 0 7.12.248 13.201.74 18.24.222 1.973.743 3.344 1.563 4.109.821.771 2.804 1.341 5.933 1.727l5.601.74v4.868c-7.977-.388-15.246-.585-21.806-.585-6.446 0-12.952.197-19.511.585v-4.868l6.926-.74c2.682-.222 4.332-.726 4.95-1.525.617-.791 1.006-3.438 1.17-7.938.269-6.961.402-16.555.402-28.783 0-8.498-.134-15.053-.402-19.66-.107-1.699-.58-2.907-1.409-3.619-.836-.714-2.698-1.069-5.598-1.069h-6.039v-4.872c6.621-.975 11.49-1.867 14.607-2.681 3.121-.81 7.151-2.192 12.091-4.142zM1170.22 187.205c-5.048 0-10.804-.194-17.276-.583v4.871l6.085.895c3.729.543 5.591 1.682 5.591 3.413 0 .92-.795 3.521-2.385 7.802-5.39 14.769-11.714 30.104-18.975 46.018-7.525-17.389-14.061-33.686-19.607-48.889-1.041-2.862-1.563-4.727-1.563-5.59 0-1.027.478-1.892 1.438-2.595.958-.701 2.481-1.054 4.564-1.054h6.085v-4.871c-12.384.389-20.268.583-23.647.583-4.077 0-8.746-.176-13.964-.517l.119-.651-6.541.334c-4.194.168-9.617.251-16.263.251.415-15.938.804-20.588 1.171-24.859l-2.102-1.646c-2.743 1.646-7.243 3.807-13.488 6.493.34 9.146.534 11.4.585 19.23-3.999 2.005-8.349 2.366-13.057 4.206v3.575c4.486-.39 8.839-.586 13.057-.586v38.888l-.391 15.78c0 4.689.627 8.193 1.887 10.511 1.262 2.319 3.286 4.215 6.081 5.695 2.791 1.48 6.215 2.221 10.263 2.221 1.535 0 3.122-.173 4.765-.508a39.291 39.291 0 0 0 5.09-1.441l7.968-9.412-2.364-2.866c-1.467 1.239-2.946 2.164-4.437 2.779a11.996 11.996 0 0 1-4.6.926c-2.556 0-4.66-.653-6.317-1.962-1.654-1.311-2.752-3.137-3.295-5.483-.544-2.344-.815-7.689-.815-16.033v-39.872h2.852l15.635-.082 3.112.076v.006h3.286c3.836 0 6.713 1.71 8.634 6.659l6.151 14.319 7.63 18.735c7.22 17.843 12.03 29.923 14.438 36.249-5.834 15.111-10.156 24.324-12.963 27.634-2.809 3.305-5.915 4.962-9.325 4.962-1.54 0-3.057-.436-4.54-1.313-1.486-.878-2.971-2.191-4.457-3.946h-1.899l-3.895 12.89c1.698.938 3.382 1.654 5.053 2.152 1.673.492 3.303.74 4.894.74 3.89 0 7.511-.971 10.851-2.919 3.345-1.949 6.085-4.734 8.222-8.355 1.099-1.869 5.81-12.294 14.142-31.282 9.478-22.467 15.373-36.244 17.687-41.33 8.431-18.476 13.523-29.089 15.278-31.839a8.777 8.777 0 0 1 3.207-3.027c1.315-.729 2.603-1.093 3.862-1.093h2.878v-4.871c-4.829.388-9.629.582-14.395.582zM471.28 335.086c1.606-3.14 3.821-5.522 6.646-7.148 2.823-1.624 6.184-2.439 10.078-2.439 4.262 0 7.949.923 11.066 2.767 3.114 1.845 5.566 4.592 7.358 8.239 1.788 3.651 2.684 8.046 2.684 13.186 0 4.901-.811 9.061-2.429 12.479-1.619 3.421-3.842 5.991-6.666 7.714-2.824 1.722-6.121 2.583-9.895 2.583-4.065 0-7.682-1.013-10.845-3.037-3.166-2.023-5.691-5.068-7.578-9.131-1.887-4.063-2.83-8.837-2.83-14.317.001-4.126.804-7.755 2.411-10.896zm-6.581 28.001c2.225 4.114 5.251 7.243 9.087 9.383 3.834 2.141 8.401 3.209 13.702 3.209 8.474 0 15.495-2.723 21.064-8.173 5.57-5.451 8.354-12.228 8.354-20.33 0-7.517-2.4-13.546-7.198-18.084-4.799-4.538-11.425-6.807-19.874-6.807-8.625 0-15.523 2.445-20.701 7.335-5.177 4.893-7.765 11.342-7.765 19.345 0 5.305 1.11 10.012 3.331 14.122zM538.319 350.249v12.475c0 4.958.268 7.851.805 8.684.536.836 1.902 1.254 4.099 1.254h2.599v2.337c-4.644-.193-8.347-.293-11.108-.293-2.785 0-6.392.1-10.815.293v-2.337h2.929c2.097 0 3.384-.402 3.86-1.207.476-.803.714-3.733.714-8.791V335.12c0-4.935-.264-7.807-.787-8.609-.525-.803-1.884-1.203-4.08-1.203h-2.636v-2.34c4.048.193 7.694.292 10.939.292l21.037-.486c2.195 0 4.268.128 6.22.388-.831 2.647-1.287 6.359-1.365 11.132h-2.436c-.146-2.534-.436-4.798-.867-6.794a38.9 38.9 0 0 0-10.023-1.316c-2.945 0-5.828.158-8.65.472-.288 3.143-.433 5.994-.433 8.556v11.531c1.431.132 2.842.194 4.227.194 3.584 0 6.725-.096 9.425-.292.907-.052 1.522-.251 1.845-.604.324-.355.591-1.305.808-2.845l.358-2.789h2.436c-.22 4.493-.33 7.38-.33 8.657l.038 8.688h-2.437v-2.833c0-2.26-.421-3.636-1.26-4.125-.84-.493-4.054-.737-9.643-.737-1.536-.002-3.359.063-5.469.192zM648.923 330.884l-10.848 22.582c-4.063 8.475-7.4 15.882-10.004 22.213h-1.561c-.894-2.163-3.455-7.726-7.682-16.684l-12.974-27.053v28.202c0 6.57.266 10.296.795 11.183.53.89 2.18 1.334 4.948 1.334h1.368v2.337c-3.427-.193-6.21-.293-8.354-.293-1.554 0-4.646.1-9.281.293v-2.337h2.393c1.618 0 2.698-.229 3.239-.695.538-.46.87-1.303.994-2.52.323-3.406.486-7.085.486-11.024v-20.667c0-4.991-.11-8.289-.331-9.896-.101-.826-.461-1.456-1.087-1.898-.629-.436-1.875-.653-3.742-.653h-1.952v-2.34c4.263.193 6.945.292 8.048.292 1.396 0 3.381-.099 5.954-.292 2.939 6.555 6.33 13.782 10.171 21.678l9.587 19.777 8.875-18.314c3.116-6.409 6.672-14.126 10.664-23.141 3.067.193 5.229.292 6.479.292 1.448 0 4.063-.099 7.843-.292v2.34h-2.408c-2.174 0-3.501.37-3.983 1.11-.48.743-.721 3.416-.721 8.016v26.69c0 5.938.252 9.348.76 10.224.504.875 1.919 1.314 4.24 1.314h2.112v2.337a173.396 173.396 0 0 0-9.782-.293c-3.434 0-7.026.1-10.777.293v-2.337h2.421c1.931 0 3.1-.421 3.502-1.261.402-.841.606-4.447.606-10.827v-29.69zM672.831 372.661h2.322c2.284 0 3.654-.547 4.108-1.645.455-1.093.684-6.338.684-15.735v-12.379c0-9.735-.199-15.103-.592-16.103-.393-.994-1.573-1.493-3.538-1.493h-2.984v-2.34c4.084.131 8.118.193 12.104.193 3.321 0 6.334-.063 9.04-.193v2.34h-2.854c-1.754 0-2.851.206-3.295.618-.445.415-.705 1.46-.778 3.141-.125 2.603-.187 7.242-.187 13.91v12.596c0 9.472.209 14.684.63 15.645.42.964 1.766 1.445 4.039 1.445h2.444v2.337a230.05 230.05 0 0 0-9.889-.193c-4.159 0-7.91.063-11.255.193v-2.337zM714.218 331.041V356.4c0 5.776.111 9.801.332 12.076.173 1.736.463 2.797.871 3.172.409.383 1.588.657 3.54.824l2.371.188v2.337c-2.687-.193-5.116-.293-7.284-.293-1.504 0-4.956.1-10.353.293v-2.337h2.65c1.597 0 2.643-.222 3.135-.66.493-.436.8-1.298.922-2.591.27-2.678.404-6.316.404-10.917v-18.146c0-3.407-.037-6.78-.107-10.111-.052-1.412-.24-2.38-.568-2.904-.328-.523-.809-.991-1.444-1.406-.634-.412-1.523-.618-2.666-.618h-2.266v-2.34c3.095.193 5.456.292 7.09.292 1.767 0 3.705-.099 5.818-.292a335.705 335.705 0 0 1 6.804 8.605 391.518 391.518 0 0 0 6.623 8.422l12.481 15.347c4.499 5.504 7.75 9.328 9.744 11.472v-23.437c0-9.81-.18-15.167-.531-16.081-.354-.914-1.765-1.489-4.225-1.734l-2.746-.254v-2.34c3.946.193 7.015.292 9.197.292 2.28 0 5.224-.099 8.827-.292v2.34h-2.836c-2.287 0-3.601.752-3.943 2.26-.221 1-.335 6.325-.335 15.979v16.458c0 4.431.198 9.716.585 15.869-3.321-.504-5.257-.875-5.793-1.099-.538-.229-1.054-.608-1.541-1.14a258.732 258.732 0 0 1-8.508-10.017l-26.248-32.576zM782.642 331.041V356.4c0 5.776.111 9.801.334 12.076.174 1.736.463 2.797.872 3.172.406.383 1.588.657 3.537.824l2.371.188v2.337c-2.688-.193-5.117-.293-7.284-.293-1.502 0-4.956.1-10.354.293v-2.337h2.654c1.598 0 2.643-.222 3.132-.66.493-.436.8-1.298.926-2.591.268-2.678.402-6.316.402-10.917v-18.146c0-3.407-.035-6.78-.11-10.111-.048-1.412-.235-2.38-.563-2.904-.329-.523-.813-.991-1.445-1.406-.633-.412-1.522-.618-2.666-.618h-2.266v-2.34c3.092.193 5.453.292 7.087.292 1.767 0 3.707-.099 5.82-.292a335.705 335.705 0 0 1 6.804 8.605 382.373 382.373 0 0 0 6.624 8.422l12.479 15.347c4.504 5.504 7.752 9.328 9.744 11.472v-23.437c0-9.81-.176-15.167-.529-16.081-.355-.914-1.764-1.489-4.227-1.734l-2.743-.254v-2.34c3.946.193 7.012.292 9.193.292 2.281 0 5.225-.099 8.831-.292v2.34h-2.839c-2.283 0-3.598.752-3.943 2.26-.221 1-.331 6.325-.331 15.979v16.458c0 4.431.194 9.716.585 15.869-3.326-.504-5.257-.875-5.798-1.099-.537-.229-1.051-.608-1.54-1.14a256.158 256.158 0 0 1-8.505-10.017l-26.252-32.576zM855.553 350.188v8.982l.033 5.168c0 3.229.038 5.587.112 7.077 3.576.27 7.412.403 11.506.403 2.743 0 5.047-.122 6.91-.365 1.2-.148 2.475-.462 3.824-.951.612-2.144 1.235-4.821 1.874-8.039h2.437c-.698 5.322-1.048 8.866-1.048 10.64l.071 1.639a72.125 72.125 0 0 1-8.287.486l-5.758-.144c-6.356-.23-11.027-.343-14.01-.343-2.86 0-6.663.099-11.407.292v-2.34h1.138c2.126 0 3.466-.203 4.019-.618.55-.416.914-1.386 1.099-2.92.182-1.534.274-4.92.274-10.153V338.96c0-3.286-.08-5.973-.238-8.069-.159-2.093-.328-3.343-.514-3.743a2.128 2.128 0 0 0-.785-.932c-.34-.218-1.389-.411-3.146-.585l-2.817-.289v-2.341h3.967l3.896.146c2.179.099 3.836.146 4.961.146l14.111-.242 6.687-.051a66.602 66.602 0 0 1 6.911.293c-.94 2.895-1.46 6.665-1.559 11.302h-2.436c0-2.704-.134-4.958-.406-6.753-2.901-1.083-6.466-1.627-10.689-1.627-3.367 0-6.896.146-10.583.438a162.43 162.43 0 0 1-.074 6.839l-.071 5.604v7.388c2.441.194 4.603.293 6.483.293 5.875 0 9.206-.203 9.982-.612s1.168-1.675 1.168-3.8v-2.412h2.438c-.173 3.717-.26 6.678-.26 8.89 0 2.334.087 5.091.26 8.26h-2.438v-2.118c0-2.345-.464-3.78-1.392-4.306-.926-.522-4.191-.785-9.798-.785a73.722 73.722 0 0 0-6.445.294zM926.206 325.536c-.729 2.537-1.119 5.902-1.171 10.097h-2.534v-2.926c0-1.904-.256-3.197-.767-3.878-.514-.681-1.851-1.409-4.009-2.179-2.165-.768-4.439-1.152-6.827-1.152-3.908 0-6.979.97-9.21 2.904-2.235 1.938-3.35 4.427-3.35 7.463 0 1.914.457 3.555 1.37 4.932a7.754 7.754 0 0 0 3.699 2.977c1.549.608 4.842 1.151 9.871 1.624 5.031.489 8.431 1.14 10.201 1.949 1.771.813 3.186 2.111 4.248 3.901 1.063 1.788 1.594 3.914 1.594 6.364 0 4.932-2.057 9.177-6.167 12.732-4.111 3.555-9.595 5.334-16.446 5.334-2.349 0-4.716-.241-7.101-.729a43.89 43.89 0 0 1-7.216-2.148c.415-2.923.608-6.673.585-11.252h2.535v1.827c0 2.358.122 3.821.367 4.379.241.562.817 1.156 1.722 1.788 1.344.95 2.943 1.672 4.801 2.174 1.859.499 3.859.747 6.013.747 4.617 0 8.185-1.081 10.701-3.243 2.516-2.161 3.776-4.91 3.776-8.236 0-1.943-.43-3.591-1.284-4.937-.854-1.348-2.05-2.35-3.588-3.007-1.54-.656-4.386-1.152-8.535-1.496-5.517-.436-9.266-1.093-11.244-1.964-1.978-.877-3.529-2.254-4.651-4.138-1.123-1.884-1.684-4.224-1.684-7.018 0-4.738 1.725-8.609 5.186-11.624 3.453-3.01 8.232-4.518 14.334-4.518 2.451 0 4.905.267 7.371.804 2.464.539 4.933 1.354 7.41 2.449zM948.016 335.086c1.606-3.14 3.82-5.522 6.646-7.148 2.827-1.624 6.186-2.439 10.08-2.439 4.26 0 7.95.923 11.063 2.767 3.117 1.845 5.567 4.592 7.362 8.239 1.784 3.651 2.683 8.046 2.683 13.186 0 4.901-.812 9.061-2.43 12.479-1.617 3.421-3.838 5.991-6.665 7.714-2.825 1.722-6.12 2.583-9.896 2.583-4.065 0-7.681-1.013-10.843-3.037-3.167-2.023-5.692-5.068-7.579-9.131-1.886-4.063-2.829-8.837-2.829-14.317-.001-4.126.802-7.755 2.408-10.896zm-6.579 28.001c2.224 4.114 5.251 7.243 9.087 9.383 3.833 2.141 8.399 3.209 13.702 3.209 8.472 0 15.492-2.723 21.066-8.173 5.567-5.451 8.35-12.228 8.35-20.33 0-7.517-2.399-13.546-7.197-18.084s-11.424-6.807-19.875-6.807c-8.622 0-15.524 2.445-20.697 7.335-5.179 4.893-7.768 11.342-7.768 19.345-.001 5.305 1.108 10.012 3.332 14.122zM1024.423 326.379c-.27 3.645-.404 7.486-.404 11.522v20.788c0 7.732.198 11.995.585 12.786.393.791 1.783 1.186 4.174 1.186h2.746v2.337c-4.327-.193-7.994-.293-11-.293-3.03 0-6.672.1-10.926.293v-2.337h3.074c1.612 0 2.66-.215 3.149-.639.487-.428.792-1.257.914-2.499.245-2.845.367-6.517.367-11.015V337.68c0-4.104-.087-7.875-.258-11.302h-3.716c-5.994 0-9.299.14-9.905.421-.608.283-1.009 1.384-1.203 3.305l-.51 4.946h-2.337l.074-4.412c0-1.779-.158-4.338-.467-7.672 13.198.193 20.96.292 23.282.292l20.273-.292c-.505 4.176-.798 8.203-.875 12.084h-2.341l-.36-4.836c-.149-1.672-.354-2.663-.622-2.971-.266-.308-.859-.498-1.781-.573-2.673-.194-5.702-.292-9.1-.292h-2.833zM1064 332.432l9.225 22.008h-18.452l9.227-22.008zm14.598 35.151c.73 1.849 1.096 2.994 1.096 3.431 0 .414-.183.758-.55 1.026-.241.167-1.009.304-2.299.399l-3.618.222v2.337c4.457-.193 8.027-.293 10.705-.293 2.875 0 5.896.1 9.063.293v-2.337c-1.878-.099-3.081-.278-3.617-.531-.538-.257-1.013-.681-1.425-1.277-.418-.598-1.245-2.356-2.486-5.282l-18.491-42.995h-2.53c-.974 2.731-2.801 7.113-5.479 13.153l-10.039 22.759a310.255 310.255 0 0 1-5.29 11.358c-.562 1.194-1.093 1.94-1.588 2.245-.502.307-1.604.483-3.308.531l-1.093.039v2.337c2.653-.193 5.731-.293 9.235-.293 2.921 0 5.554.1 7.892.293v-2.337l-3.509-.402c-1.242-.147-2.015-.344-2.319-.587-.304-.244-.456-.646-.456-1.205 0-.874.814-3.263 2.448-7.158l2.5-5.946h21.118l4.04 10.22zM790.383 52.54v38.178c0 8.342.271 13.689.814 16.033.543 2.345 1.642 4.172 3.299 5.48 1.656 1.311 3.758 1.962 6.313 1.962 1.57 0 3.104-.308 4.597-.926 1.493-.615 2.975-1.54 4.439-2.776l2.364 2.864-7.967 9.413a39.01 39.01 0 0 1-5.09 1.44c-1.646.337-3.23.509-4.768.509-4.048 0-7.469-.74-10.264-2.222-2.79-1.479-4.818-3.376-6.078-5.693-1.259-2.317-1.886-5.821-1.886-10.512l.391-15.781V53.32c-4.421 0-8.188-.603-13.821-.181v-3.59c5.559-1.873 8.952-1.795 13.821-4.234-.051-7.831-.244-10.973-.585-20.119 6.244-2.686 10.744-4.848 13.487-6.492l2.102 1.645c-.367 4.272-.758 9.029-1.17 24.967 6.645 0 12.068-.083 16.263-.251l6.538-.334-.974 7.81-3.34-.082-15.637.082h-2.848zM1256.799 53.817c3.813-2.348 9.355-8.803 9.355-14.38 0-5.135-5.543-9.977-9.209-12.178 4.693-3.521 9.531-7.19 13.64-11.445 4.543 3.669 6.274 9.537 6.274 14.968 0 8.181-11.833 21.572-16.688 25.499l-3.372-2.464z"/></svg>