<svg xmlns="http://www.w3.org/2000/svg" width="116.427" height="30" viewBox="0 0 117 30"><g fill="#09539d"><path data-name="Path 2329" d="M0 .107h9.12c9.547 0 13.84 4.64 13.84 14.027 0 7.493-2.96 15.307-13.76 15.307H0Zm6.373 23.307H8.72c5.973 0 7.707-3.547 7.707-8.693 0-6.8-3.093-8.027-7.733-8.027H6.4v16.72Z"/><path data-name="Path 2330" d="M88.533 12.746c0-3.84 3.307-7.333 8.773-7.333a11.524 11.524 0 0 1 9.227 3.947l-4.053 3.973c-1.547-1.6-3.173-2.853-5.333-2.853-1.413 0-2.347.747-2.347 1.84 0 3.547 11.12 2.293 11.12 10.213 0 3.147-2.48 7.36-9.333 7.36a13.9 13.9 0 0 1-10.134-3.947l3.76-4.347c1.547 1.6 3.867 3.307 6.693 3.307 1.973 0 2.72-.933 2.72-2 .027-3.44-11.093-2.293-11.093-10.16Z"/><path data-name="Path 2331" d="m49.467 26.08-3.84-4.213c-7.253 5.227-11.387.213-11.387.213s13.04-5.92 13.84-6.427a12.851 12.851 0 0 0-2.987-7.387A9.637 9.637 0 0 0 38 5.387c-3.707 0-6.48 1.04-8.667 3.28C27.04 11.014 26.08 14 26.08 17.84c0 3.547 1.147 6.693 3.413 8.613 6.4 5.413 14.293 3.067 15.173 2.773a12.044 12.044 0 0 0 4.801-3.146ZM35.494 11.76c4-1.6 5.28 1.733 5.28 1.733l-8.16 3.84c-.001.027-.401-4.266 2.879-5.573Z"/><path data-name="Path 2332" d="M73.813 5.467C66 5.467 61.92 11.6 61.92 17.814c0 6.347 3.573 12.187 11.68 12.187 7.813 0 11.893-5.84 11.893-12.347 0-6-3.546-12.187-11.68-12.187Zm-.08 18.693a6.088 6.088 0 1 1 5.44-6.053 5.775 5.775 0 0 1-5.44 6.053Z"/><path data-name="Path 2333" d="M112.373 5.467V6h-.96v2.56h-.667V6h-.986v-.533Zm4.053 0V8.56h-.64V6l-1.013 2.56h-.32L113.466 6v2.56h-.64V5.467h.987l.8 2 .853-2Z"/><path data-name="Path 2334" d="M58.48 29.813V0h-6.427v23.067c0 2.427.373 3.867 1.627 5.093a6.305 6.305 0 0 0 4.8 1.653Z"/></g></svg>