<svg xmlns="http://www.w3.org/2000/svg" viewBox="0 0 1008.2 159.49" style="enable-background:new 0 0 1008.2 159.49" xml:space="preserve"><path d="m261.73 18.76-3.99 9.29a6.402 6.402 0 0 1-7.6 3.63c-5.6-1.72-10.06-2.91-13.36-3.55-3.31-.65-7.4-.97-12.29-.97-7.76 0-14.73 2.15-20.91 6.47-6.18 4.31-11.03 10.49-14.55 18.54-3.52 8.05-5.28 17.46-5.28 28.23 0 9.63 1.54 18.43 4.63 26.4 3.09 7.97 7.58 14.3 13.47 18.97 5.89 4.67 12.86 7 20.91 7 8.93 0 17.92-1.57 26.96-4.72 3-1.05 6.32.31 7.76 3.14l4.91 9.63c1.71 3.36.17 7.48-3.34 8.85-4.03 1.57-8.55 2.9-13.55 4-7.83 1.72-14.91 2.59-21.23 2.59-14.8 0-27.45-3.3-37.93-9.91-10.49-6.61-18.39-15.63-23.71-27.05s-7.97-24.32-7.97-38.69c0-14.94 2.91-28.24 8.73-39.87 5.82-11.64 14.08-20.72 24.79-27.27 10.7-6.54 23.1-9.8 37.18-9.8 5.17 0 11.49.79 18.97 2.37 5.07 1.07 9.74 2.51 14.02 4.31 3.26 1.36 4.78 5.14 3.38 8.41zM497.24 155.93h-51.25c-3.68 0-6.66-2.98-6.66-6.66V9.94c0-3.68 2.98-6.66 6.66-6.66h51.25c15.41 0 28.4 3.18 38.95 9.54 10.55 6.36 18.41 15.19 23.57 26.49 5.16 11.3 7.74 24.43 7.74 39.4 0 24.1-6.1 42.91-18.3 56.46-12.19 13.54-29.51 20.46-51.96 20.76zm1.12-127.96h-23.42c-3.68 0-6.66 2.98-6.66 6.66v90.17c0 3.68 2.98 6.66 6.66 6.66h21.85c12.87 0 22.86-4.23 29.97-12.68 7.11-8.45 10.66-21.81 10.66-40.07 0-16.31-3.22-28.85-9.65-37.6-6.44-8.76-16.24-13.14-29.41-13.14zM138.66 145.74C121.89 98.84 103.74 52.9 84.27 7.96c-1.25-2.89-4.19-4.73-7.39-4.63-1.76.05-8.79.05-10.55 0-3.2-.1-6.14 1.74-7.39 4.63A2257.591 2257.591 0 0 0 4.56 145.74c-1.84 5.15 2.09 10.55 7.56 10.38l12.82-.39c3.23-.1 6.08-2.18 7.12-5.21 3.6-10.46 7.27-20.88 11.01-31.24 2.75-7.9 5.53-15.77 8.36-23.61a2227.79 2227.79 0 0 1 20.18-51.96c6.92 17.18 13.65 34.5 20.18 51.96 2.83 7.84 5.61 15.71 8.36 23.61 3.74 10.37 7.41 20.78 11.01 31.24 1.04 3.04 3.89 5.11 7.12 5.21l12.82.39c5.47.18 9.4-5.22 7.56-10.38zM413.2 145.74c-16.76-46.9-34.92-92.85-54.39-137.78-1.25-2.89-4.19-4.73-7.39-4.63-1.76.05-8.79.05-10.55 0-3.2-.1-6.14 1.74-7.39 4.63a2264.162 2264.162 0 0 0-54.39 137.78c-1.84 5.15 2.09 10.55 7.56 10.38l12.82-.39c3.23-.1 6.08-2.18 7.12-5.21 3.6-10.46 7.27-20.88 11.01-31.24 2.75-7.9 5.53-15.77 8.36-23.61a2227.79 2227.79 0 0 1 20.18-51.96c6.92 17.18 13.65 34.5 20.18 51.96 2.83 7.84 5.61 15.71 8.36 23.61 3.74 10.37 7.41 20.78 11.01 31.24 1.04 3.04 3.89 5.11 7.12 5.21l12.82.39c5.48.18 9.41-5.22 7.57-10.38zM996.41 3.33h-13.25c-2.74 0-5.26 1.46-6.64 3.82l-34.86 60-34.86-60a7.68 7.68 0 0 0-6.64-3.82h-13.25c-5.87 0-9.57 6.32-6.69 11.44l45.62 81.19c.64 1.15.98 2.44.98 3.76v48.74c0 4.24 3.44 7.68 7.68 7.68h14.32c4.24 0 7.68-3.44 7.68-7.68V99.71c0-1.32.34-2.61.98-3.76l45.62-81.19c2.88-5.12-.82-11.43-6.69-11.43zM848.55 3.24h-5.96c-2.57 0-4.96 1.28-6.38 3.42l-47.28 67.08-.07-.1-.07.1-47.27-67.08a7.658 7.658 0 0 0-6.38-3.42h-5.96c-4.24 0-7.67 3.43-7.67 7.67v137.34c0 4.24 3.43 7.67 7.67 7.67h14.08c4.24 0 7.67-3.43 7.67-7.67V62.59l31.85 44.51c1.52 2.04 3.8 3.06 6.09 3.08 2.29-.02 4.57-1.04 6.09-3.08l31.85-44.51v85.66c0 4.24 3.43 7.67 7.67 7.67h14.08c4.24 0 7.67-3.43 7.67-7.67V10.91a7.68 7.68 0 0 0-7.68-7.67zM594.61 149.06V10.27c0-3.81 3.09-6.9 6.9-6.9h77.3c3.81 0 6.9 3.09 6.9 6.9v9.08c0 3.81-3.09 6.9-6.9 6.9h-55.26V133.3h55.26c3.81 0 6.9 3.09 6.9 6.9v8.86c0 3.81-3.09 6.9-6.9 6.9h-77.3c-3.81 0-6.9-3.09-6.9-6.9z"/><path d="M662.63 74.22v9.08c0 3.81-3.1 6.9-6.91 6.9h-9.06c-3.82 0-6.91-3.09-6.91-6.9v-9.08c0-3.81 3.09-6.9 6.91-6.9h9.06c3.81 0 6.91 3.09 6.91 6.9z"/></svg>